<svg width="50" height="50" viewBox="0 0 50 50" fill="none" xmlns="http://www.w3.org/2000/svg">
<rect width="49.5157" height="50" rx="5" fill="#917952"/>
<path d="M19.8078 37.6L17.6578 35.45L22.6578 30.5L17.6578 25.55L19.8078 23.4L24.7578 28.4L29.7078 23.4L31.8578 25.55L26.8578 30.5L31.8578 35.45L29.7078 37.6L24.7578 32.6L19.8078 37.6ZM9.75781 44.5C8.95781 44.5 8.25781 44.2 7.65781 43.6C7.05781 43 6.75781 42.3 6.75781 41.5V10.5C6.75781 9.7 7.05781 9 7.65781 8.4C8.25781 7.8 8.95781 7.5 9.75781 7.5H13.0078V4.5H16.2578V7.5H33.2578V4.5H36.5078V7.5H39.7578C40.5578 7.5 41.2578 7.8 41.8578 8.4C42.4578 9 42.7578 9.7 42.7578 10.5V41.5C42.7578 42.3 42.4578 43 41.8578 43.6C41.2578 44.2 40.5578 44.5 39.7578 44.5H9.75781ZM9.75781 41.5H39.7578V20H9.75781V41.5ZM9.75781 17H39.7578V10.5H9.75781V17ZM9.75781 17V10.5V17Z" fill="black"/>
</svg>
