<svg width="32" height="32" viewBox="0 0 32 32" fill="none" xmlns="http://www.w3.org/2000/svg">
<path d="M5.33335 9.33325V11.9999C5.33335 12.7333 4.73335 13.3333 4.00002 13.3333H2.66669V18.6666H4.00002C4.73335 18.6666 5.33335 19.2666 5.33335 19.9999V22.6666C5.33335 24.8666 7.13335 26.6666 9.33335 26.6666H13.3334V23.9999H9.33335C8.60002 23.9999 8.00002 23.3999 8.00002 22.6666V19.9999C8.00002 18.2666 6.88002 16.7733 5.33335 16.2266V15.7733C6.88002 15.2266 8.00002 13.7333 8.00002 11.9999V9.33325C8.00002 8.59992 8.60002 7.99992 9.33335 7.99992H13.3334V5.33325H9.33335C7.13335 5.33325 5.33335 7.13325 5.33335 9.33325Z" fill="currentColor"/>
<path d="M28 13.3333C27.2667 13.3333 26.6667 12.7333 26.6667 11.9999V9.33325C26.6667 7.13325 24.8667 5.33325 22.6667 5.33325H18.6667V7.99992H22.6667C23.4 7.99992 24 8.59992 24 9.33325V11.9999C24 13.7333 25.12 15.2266 26.6667 15.7733V16.2266C25.12 16.7733 24 18.2533 24 19.9999V22.6666C24 23.3999 23.4 23.9999 22.6667 23.9999H18.6667V26.6666H22.6667C24.8667 26.6666 26.6667 24.8666 26.6667 22.6666V19.9999C26.6667 19.2666 27.2667 18.6666 28 18.6666H29.3334V13.3333H28Z" fill="currentColor"/>
</svg>
