<svg width="50" height="50" viewBox="0 0 50 50" fill="none" xmlns="http://www.w3.org/2000/svg">
<rect width="49.5157" height="50" rx="5" fill="#917952"/>
<path d="M4.75781 38.5V35.45H44.7578V38.5H4.75781ZM6.65781 25.8L4.65781 24.7L6.65781 21.3H2.75781V19.05H6.65781L4.65781 15.65L6.65781 14.55L8.55781 17.9L10.4578 14.55L12.4578 15.65L10.4578 19.05H14.3578V21.3H10.4578L12.4578 24.7L10.4578 25.8L8.55781 22.45L6.65781 25.8ZM22.8578 25.8L20.8578 24.6L22.8578 21.2H18.9578V18.95H22.8578L20.8578 15.55L22.8578 14.45L24.7578 17.8L26.6578 14.45L28.6578 15.55L26.6578 18.95H30.5578V21.2H26.6578L28.6578 24.6L26.6578 25.8L24.7578 22.45L22.8578 25.8ZM39.0578 25.8L37.0578 24.6L39.0578 21.2H35.1578V18.95H39.0578L37.0578 15.55L39.0578 14.45L40.9578 17.8L42.8578 14.45L44.8578 15.55L42.8578 18.95H46.7578V21.2H42.8578L44.8578 24.6L42.8578 25.8L40.9578 22.45L39.0578 25.8Z" fill="black"/>
</svg>
