<svg id="Layer_1" data-name="Layer 1" xmlns="http://www.w3.org/2000/svg" viewBox="0 0 38 38"><defs><style>.cls-1{fill:none;}</style></defs><rect class="cls-1" width="38" height="38"/><path id="Group_1179" data-name="Group 1179" d="M5,4.26H32.85a5,5,0,0,1,5,5V28.74a5,5,0,0,1-5,5H5a5,5,0,0,1-5-5V9.26A5,5,0,0,1,5,4.26Zm29.12,9a1.5,1.5,0,0,0-1.5-1.5H21a1.5,1.5,0,0,0,0,3H32.62A1.5,1.5,0,0,0,34.12,13.23Zm0,5.51a1.5,1.5,0,0,0-1.5-1.5H21a1.5,1.5,0,0,0,0,3H32.62A1.5,1.5,0,0,0,34.12,18.74Zm0,5.51a1.5,1.5,0,0,0-1.5-1.5H21a1.5,1.5,0,0,0,0,3H32.62A1.5,1.5,0,0,0,34.12,24.25ZM6.17,15.08a3.35,3.35,0,1,0,3.35-3.35A3.35,3.35,0,0,0,6.17,15.08Zm-1.89,9.2v.58a.92.92,0,0,0,.92.92h8.63a.92.92,0,0,0,.92-.92v-.58h0a4.6,4.6,0,0,0-4.61-4.61H8.89A4.6,4.6,0,0,0,4.28,24.28Z"/></svg>