<svg id="Layer_1" data-name="Layer 1"
    xmlns="http://www.w3.org/2000/svg" viewBox="0 0 200 200">
    <defs>
        <style>.cls-1{fill:none;}</style>
    </defs>
    <rect class="cls-1" width="200" height="200"/>
    <path d="M88.14,142.39H37.65a8.13,8.13,0,0,1-8.12-8.12V61.55a8.12,8.12,0,0,1,8.12-8.11H88.14a8.12,8.12,0,0,1,8.11,8.11v72.72A8.12,8.12,0,0,1,88.14,142.39ZM37.65,57.44a4.12,4.12,0,0,0-4.12,4.11v72.72a4.13,4.13,0,0,0,4.12,4.12H88.14a4.12,4.12,0,0,0,4.11-4.12V61.55a4.11,4.11,0,0,0-4.11-4.11Z"/>
    <path d="M83.43,73.35H42.36a2,2,0,0,1,0-4H83.43a2,2,0,0,1,0,4Z"/>
    <path d="M83.43,84.62H42.36a2,2,0,0,1,0-4H83.43a2,2,0,0,1,0,4Z"/>
    <rect x="47.49" y="97.4" width="5.13" height="5.13"/>
    <rect x="60.33" y="107.66" width="2.57" height="2.57"/>
    <rect x="62.89" y="105.1" width="2.57" height="2.57"/>
    <rect x="60.33" y="102.53" width="2.57" height="2.57"/>
    <rect x="62.89" y="99.96" width="2.57" height="2.57"/>
    <rect x="60.33" y="97.4" width="2.57" height="2.57"/>
    <rect x="62.89" y="94.83" width="2.57" height="2.57"/>
    <rect x="62.89" y="97.4" width="2.57" height="2.57"/>
    <rect x="60.33" y="92.26" width="2.57" height="2.57"/>
    <rect x="42.36" y="110.23" width="2.57" height="2.57"/>
    <rect x="47.49" y="110.23" width="2.57" height="2.57"/>
    <rect x="55.19" y="110.23" width="2.57" height="2.57"/>
    <rect x="62.89" y="110.23" width="2.57" height="2.57"/>
    <rect x="68.03" y="110.23" width="2.57" height="2.57"/>
    <rect x="73.16" y="110.23" width="2.57" height="2.57"/>
    <rect x="78.3" y="110.23" width="2.57" height="2.57"/>
    <rect x="44.92" y="112.8" width="2.57" height="2.57"/>
    <rect x="50.06" y="112.8" width="2.57" height="2.57"/>
    <rect x="60.33" y="112.8" width="2.57" height="2.57"/>
    <rect x="55.19" y="112.8" width="2.57" height="2.57"/>
    <rect x="65.46" y="112.8" width="2.57" height="2.57"/>
    <rect x="68.03" y="112.8" width="2.57" height="2.57"/>
    <rect x="70.6" y="112.8" width="2.57" height="2.57"/>
    <rect x="75.73" y="112.8" width="2.57" height="2.57"/>
    <rect x="78.3" y="112.8" width="2.57" height="2.57"/>
    <rect x="62.89" y="115.37" width="2.57" height="2.57"/>
    <rect x="68.03" y="115.37" width="2.57" height="2.57"/>
    <rect x="73.16" y="115.37" width="2.57" height="2.57"/>
    <rect x="75.73" y="115.37" width="2.57" height="2.57"/>
    <rect x="80.86" y="115.37" width="2.57" height="2.57"/>
    <rect x="60.33" y="117.93" width="2.57" height="2.57"/>
    <rect x="62.89" y="117.93" width="2.57" height="2.57"/>
    <rect x="65.46" y="117.93" width="2.57" height="2.57"/>
    <rect x="73.16" y="117.93" width="2.57" height="2.57"/>
    <rect x="78.3" y="117.93" width="2.57" height="2.57"/>
    <rect x="68.03" y="120.5" width="2.57" height="2.57"/>
    <rect x="70.6" y="120.5" width="2.57" height="2.57"/>
    <rect x="75.73" y="120.5" width="2.57" height="2.57"/>
    <rect x="78.3" y="120.5" width="2.57" height="2.57"/>
    <rect x="60.33" y="123.07" width="2.57" height="2.57"/>
    <rect x="62.89" y="123.07" width="2.57" height="2.57"/>
    <rect x="68.03" y="123.07" width="2.57" height="2.57"/>
    <rect x="73.16" y="123.07" width="2.57" height="2.57"/>
    <rect x="75.73" y="123.07" width="2.57" height="2.57"/>
    <rect x="80.86" y="123.07" width="2.57" height="2.57"/>
    <rect x="62.89" y="125.64" width="2.57" height="2.57"/>
    <rect x="65.46" y="125.64" width="2.57" height="2.57"/>
    <rect x="70.6" y="125.64" width="2.57" height="2.57"/>
    <rect x="75.73" y="125.64" width="2.57" height="2.57"/>
    <rect x="78.3" y="125.64" width="2.57" height="2.57"/>
    <rect x="80.86" y="125.64" width="2.57" height="2.57"/>
    <rect x="60.33" y="128.2" width="2.57" height="2.57"/>
    <rect x="65.46" y="128.2" width="2.57" height="2.57"/>
    <rect x="68.03" y="128.2" width="2.57" height="2.57"/>
    <rect x="73.16" y="128.2" width="2.57" height="2.57"/>
    <rect x="78.3" y="128.2" width="2.57" height="2.57"/>
    <rect x="62.89" y="130.77" width="2.57" height="2.57"/>
    <rect x="70.6" y="130.77" width="2.57" height="2.57"/>
    <rect x="78.3" y="130.77" width="2.57" height="2.57"/>
    <path d="M55.19,94.83V105.1H44.92V94.83H55.19m2.57-2.57H42.36v15.4h15.4V92.26Z"/>
    <rect x="47.49" y="123.05" width="5.13" height="5.13"/>
    <path d="M55.19,120.48v10.27H44.92V120.48H55.19m2.57-2.56H42.36v15.4h15.4v-15.4Z"/>
    <rect x="73.16" y="97.4" width="5.13" height="5.13"/>
    <path d="M80.86,94.83V105.1H70.6V94.83H80.86m2.57-2.57H68v15.4h15.4V92.26Z"/>
    <path d="M157.56,73.35H116.48a2,2,0,1,1,0-4h41.08a2,2,0,0,1,0,4Z"/>
    <path d="M157.56,84.62H116.48a2,2,0,0,1,0-4h41.08a2,2,0,0,1,0,4Z"/>
    <path d="M141,123.15l1.15-1.5a8.15,8.15,0,0,1,3.87-2.76V30.58a15,15,0,0,0-15-15H68.89a15,15,0,0,0-15,15V169.42a15,15,0,0,0,15,15H131a15,15,0,0,0,12.2-6.28,17.37,17.37,0,0,1-4.91-1.57l-26.58-13.11-.06,0a6.19,6.19,0,0,1-3.21-4,4.56,4.56,0,0,1-.13-.62H66.23a6.32,6.32,0,0,1-6.33-6.33V37.14a6.32,6.32,0,0,1,6.33-6.32h67.45A6.32,6.32,0,0,1,140,37.14v86.05A.64.64,0,0,0,141,123.15ZM97.48,164a8.11,8.11,0,1,1-5.25,10.2A8.11,8.11,0,0,1,97.48,164ZM113.54,23.05a1.72,1.72,0,0,1-1.72,1.72H89.38a1.72,1.72,0,0,1-1.72-1.72v-.33A1.72,1.72,0,0,1,89.38,21h22.44a1.72,1.72,0,0,1,1.72,1.72Z"/>
    <g id="Path_286" data-name="Path 286">
        <path d="M11.46,112.28a2,2,0,0,1-1.6-.8L1.19,99.91,9.86,88.34a2,2,0,0,1,3.2,2.4L6.19,99.91l6.87,9.17a2,2,0,0,1-1.6,3.2Z"/>
    </g>
    <circle cx="16.23" cy="99.91" r="2"/>
    <circle cx="26.25" cy="99.91" r="2"/>
    <circle cx="36.28" cy="99.91" r="2"/>
    <path d="M146,180.39a19.51,19.51,0,0,1-8.62-2l-26.58-13.11a8.32,8.32,0,0,1-4.32-5.27,8.19,8.19,0,0,1,8.93-10.22l1.06.18,16.26,2.81a.47.47,0,0,0,.47-.17.48.48,0,0,0,.1-.5l-16.06-47.54a8.76,8.76,0,0,1,6.25-11.31,9,9,0,0,1,10.4,5.86l7,20.84a10.14,10.14,0,0,1,10.11-3.17L171.8,122a8.13,8.13,0,0,1,5.77,5.33l8.51,25.18a7.64,7.64,0,0,1-.39,5.84l-2.21,4.46a19.43,19.43,0,0,1-11.25,9.83l-19.93,6.73A19.61,19.61,0,0,1,146,180.39Zm-31.6-26.69a4.15,4.15,0,0,0-1.55.3,4.23,4.23,0,0,0-2.5,5,4.15,4.15,0,0,0,2.18,2.69l26.62,13.13a15.43,15.43,0,0,0,11.83.78L171,168.83a15.43,15.43,0,0,0,8.93-7.81l2.21-4.47a3.63,3.63,0,0,0,.19-2.78l-8.51-25.18a4.19,4.19,0,0,0-3-2.74l-20.71-5.2a6.12,6.12,0,0,0-6.37,2.22l-1.16,1.5a2.64,2.64,0,0,1-4.6-.76l-7.84-23.23a5.08,5.08,0,0,0-5.67-3.26,4.77,4.77,0,0,0-3.4,6.15l16.06,47.54a4.51,4.51,0,0,1-5,5.89l-17.18-3Z"/>
    <g id="Path_286-2" data-name="Path 286">
        <path d="M188.37,112.28a2,2,0,0,1-1.6-3.2l6.87-9.17-6.87-9.17a2,2,0,1,1,3.2-2.4l8.67,11.57L190,111.48A2,2,0,0,1,188.37,112.28Z"/>
    </g>
    <circle cx="183.6" cy="99.91" r="2"/>
    <circle cx="173.58" cy="99.91" r="2"/>
    <circle cx="163.55" cy="99.91" r="2"/>
    <rect x="147.29" y="110.23" width="2.57" height="2.57"/>
    <polygon points="152.43 119.17 154.99 119.81 154.99 117.93 152.43 117.93 152.43 119.17"/>
    <rect x="137.02" y="105.1" width="2.57" height="2.57"/>
    <rect x="154.99" y="115.37" width="2.57" height="2.57"/>
    <polygon points="121.62 128.18 126.75 128.18 126.75 126.34 125.64 123.05 121.62 123.05 121.62 128.18"/>
    <path d="M157.56,92.26h-15.4v15.4h15.4ZM155,105.1H144.72V94.83H155Z"/>
    <polygon points="139.59 99.96 139.59 97.39 139.59 94.83 137.02 94.83 137.02 97.39 134.45 97.39 134.45 99.96 137.02 99.96 137.02 102.53 139.59 102.53 139.59 99.96"/>
    <rect x="134.45" y="92.26" width="2.57" height="2.57"/>
    <rect x="134.45" y="102.53" width="2.57" height="2.57"/>
    <rect x="147.29" y="97.4" width="5.13" height="5.13"/>
    <polygon points="121.62 111.13 121.62 112.8 122.18 112.8 121.62 111.13"/>
    <rect x="116.48" y="110.23" width="2.57" height="2.57"/>
    <polygon points="135.57 110.23 137.02 110.23 137.02 107.66 134.71 107.66 135.57 110.23"/>
    <path d="M119.58,105.1h-.53v-1.65a6.68,6.68,0,0,1,0-3.41V94.83h10.27v1.42a7,7,0,0,1,2.57,3.13V92.26H116.48v15.4h4Z"/>
    <rect x="119.05" y="112.8" width="2.57" height="2.57"/>
    <polygon points="128.24 130.75 119.05 130.75 119.05 120.48 124.78 120.48 123.91 117.92 116.48 117.92 116.48 133.32 129.11 133.32 128.24 130.75"/>
    <polygon points="139.59 115.37 137.31 115.37 139.04 120.5 139.59 120.5 142.16 120.5 142.16 117.93 139.59 117.93 139.59 115.37"/>
    <path d="M143.25,120.5h-1.09v1.14A8.4,8.4,0,0,1,143.25,120.5Z"/>
    <path d="M147.29,115.37v3.21a7.91,7.91,0,0,1,2.57,0v-.65h2.57v-2.56H155v-5.14h-2.56v2.57h-2.57v2.57Z"/>
    <polygon points="137.02 114.52 137.02 112.8 136.44 112.8 137.02 114.52"/>
    <polygon points="142.16 115.37 142.16 117.93 144.72 117.93 144.72 115.37 147.29 115.37 147.29 112.8 144.72 112.8 144.72 110.23 142.16 110.23 142.16 112.8 139.59 112.8 139.59 115.37 142.16 115.37"/>
    <rect x="137.02" y="110.23" width="2.57" height="2.57"/>
    <path d="M132.17,142.39,132,142l-1.22-3.6h-19a4.13,4.13,0,0,1-4.12-4.12V61.55a4.12,4.12,0,0,1,4.12-4.11h50.49a4.11,4.11,0,0,1,4.11,4.11v61.12l4,1V61.55a8.12,8.12,0,0,0-8.11-8.11H111.78a8.12,8.12,0,0,0-8.12,8.11v72.72a8.13,8.13,0,0,0,8.12,8.12Z"/>
</svg>