<svg id="Layer_1" data-name="Layer 1" xmlns="http://www.w3.org/2000/svg" viewBox="0 0 30 30"><defs><style>.cls-1{fill:#313132;}</style></defs><path class="cls-1" d="M27,25.38H3a3,3,0,0,1-3-3V7.64a3,3,0,0,1,3-3H27a3,3,0,0,1,3,3V22.36A3,3,0,0,1,27,25.38ZM3,6.62a1,1,0,0,0-1,1V22.36a1,1,0,0,0,1,1H27a1,1,0,0,0,1-1V7.64a1,1,0,0,0-1-1Z"/><path class="cls-1" d="M25.33,12.14h-9a1,1,0,0,1,0-2h9a1,1,0,0,1,0,2Z"/><path class="cls-1" d="M25.33,16h-9a1,1,0,0,1,0-2h9a1,1,0,0,1,0,2Z"/><path class="cls-1" d="M25.33,19.94h-9a1,1,0,0,1,0-2h9a1,1,0,0,1,0,2Z"/><path class="cls-1" d="M8.3,16a3.23,3.23,0,1,1,3.23-3.23A3.23,3.23,0,0,1,8.3,16Zm0-4.46a1.23,1.23,0,1,0,1.23,1.23A1.23,1.23,0,0,0,8.3,11.54Z"/><path class="cls-1" d="M11.79,20.89h-7a1,1,0,0,1-1-1V18.11a3.3,3.3,0,0,1,3.3-3.29H9.49a3.3,3.3,0,0,1,3.3,3.29v1.78A1,1,0,0,1,11.79,20.89Zm-6-2h5v-.78a1.3,1.3,0,0,0-1.3-1.29H7.12a1.3,1.3,0,0,0-1.3,1.29Z"/></svg>