<svg id="Layer_1" data-name="Layer 1"
    xmlns="http://www.w3.org/2000/svg" viewBox="0 0 200 200">
    <defs>
        <style>.cls-1{fill:none;}</style>
    </defs>
    <rect class="cls-1" width="200" height="200"/>
    <path d="M180.44,130.33H108.11a8.12,8.12,0,0,1-8.11-8.12V77.79a8.12,8.12,0,0,1,8.11-8.12h72.33a8.12,8.12,0,0,1,8.11,8.12v44.42A8.12,8.12,0,0,1,180.44,130.33ZM108.11,73.67A4.12,4.12,0,0,0,104,77.79v44.42a4.12,4.12,0,0,0,4.11,4.12h72.33a4.12,4.12,0,0,0,4.11-4.12V77.79a4.12,4.12,0,0,0-4.11-4.12Z"/>
    <path d="M175.47,90.33H148.19a2,2,0,0,1,0-4h27.28a2,2,0,0,1,0,4Z"/>
    <path d="M175.47,102.12H148.19a2,2,0,0,1,0-4h27.28a2,2,0,1,1,0,4Z"/>
    <path d="M175.47,113.9H148.19a2,2,0,0,1,0-4h27.28a2,2,0,0,1,0,4Z"/>
    <path d="M124.06,102a8.73,8.73,0,1,1,8.73-8.73A8.74,8.74,0,0,1,124.06,102Zm0-13.46a4.73,4.73,0,1,0,4.73,4.73A4.73,4.73,0,0,0,124.06,88.54Z"/>
    <path d="M134.57,116.76h-21a2,2,0,0,1-2-2V109.4a8.93,8.93,0,0,1,8.92-8.92h7.18a8.93,8.93,0,0,1,8.92,8.92v5.36A2,2,0,0,1,134.57,116.76Zm-19-4h17V109.4a4.93,4.93,0,0,0-4.92-4.92h-7.18a4.92,4.92,0,0,0-4.92,4.92Z"/>
    <path d="M46.1,140.62H24.49a8.12,8.12,0,0,1-8.11-8.12V67.73a8.12,8.12,0,0,1,8.11-8.12H80.36a8.12,8.12,0,0,1,8.11,8.12v37.32a2,2,0,0,1-4,0V67.73a4.12,4.12,0,0,0-4.11-4.12H24.49a4.12,4.12,0,0,0-4.11,4.12V132.5a4.12,4.12,0,0,0,4.11,4.12H46.1a2,2,0,0,1,0,4Z"/>
    <path d="M69.7,135.67a15.47,15.47,0,1,1,15.41-17.14h0a15.48,15.48,0,0,1-13.71,17A13.85,13.85,0,0,1,69.7,135.67Zm0-26.94c-.41,0-.83,0-1.25.07A11.47,11.47,0,1,0,81.13,119h0a11.48,11.48,0,0,0-11.38-10.24Z"/>
    <path d="M62.47,155a2,2,0,0,1-1.87-1.28l-2.53-6.51-6.15,3.3A2,2,0,0,1,49.1,148l7.69-20.83a2,2,0,0,1,3.52-.45,11.47,11.47,0,0,0,9.3,4.93,2,2,0,0,1,1.62.86,2,2,0,0,1,.23,1.83l-7.12,19.29A2,2,0,0,1,62.48,155Zm-3.35-12.63a1.84,1.84,0,0,1,.69.13A2,2,0,0,1,61,143.6l1.44,3.7,4.4-11.92a15.54,15.54,0,0,1-7.44-3.69l-4.7,12.75,3.49-1.88A2,2,0,0,1,59.12,142.32Z"/>
    <path d="M77.14,155h0a2,2,0,0,1-1.86-1.31l-7.13-19.29a2,2,0,0,1,1.83-2.7c.33,0,.66,0,1-.05a11.48,11.48,0,0,0,8.27-5,2,2,0,0,1,3.54.42l7.74,21a2,2,0,0,1-2.82,2.45l-6.16-3.3L79,153.67A2,2,0,0,1,77.14,155Zm-4.36-19.59,4.41,11.94,1.43-3.7a2,2,0,0,1,1.18-1.15,2,2,0,0,1,1.64.11l3.49,1.88-4.74-12.85A15.48,15.48,0,0,1,72.78,135.36Z"/>
    <path d="M73.64,78.43H31.22a2,2,0,0,1,0-4H73.64a2,2,0,0,1,0,4Z"/>
    <path d="M73.64,93.58H31.22a2,2,0,0,1,0-4H73.64a2,2,0,0,1,0,4Z"/>
    <path d="M47.9,108.74H31.22a2,2,0,1,1,0-4H47.9a2,2,0,0,1,0,4Z"/>
    <path d="M46.47,123.89H31.22a2,2,0,0,1,0-4H46.47a2,2,0,1,1,0,4Z"/>
</svg>