<svg id="Layer_1" data-name="Layer 1" xmlns="http://www.w3.org/2000/svg" viewBox="0 0 30 30"><defs><style>.cls-1{fill:#313132;}</style></defs><rect class="cls-1" x="13.31" y="11.26" width="3.35" height="12.29"/><path class="cls-1" d="M15,6.45a2.32,2.32,0,0,0-1.29.35,1.43,1.43,0,0,0-.53,1.29,1.45,1.45,0,0,0,.53,1.29A2.33,2.33,0,0,0,15,9.74a2.38,2.38,0,0,0,1.29-.36,1.45,1.45,0,0,0,.53-1.29,1.43,1.43,0,0,0-.53-1.29A2.37,2.37,0,0,0,15,6.45Z"/><path class="cls-1" d="M15,2A13,13,0,1,1,2,15,13,13,0,0,1,15,2m0-2A15,15,0,1,0,30,15,15,15,0,0,0,15,0Z"/></svg>