<svg id="Layer_1" data-name="Layer 1" xmlns="http://www.w3.org/2000/svg" viewBox="0 0 30 30"><defs><style>.cls-1{fill:#313132;}</style></defs><path class="cls-1" d="M22.64,2c.17,0,.29.11.29.2V27.8c0,.09-.12.2-.29.2H7.36c-.17,0-.29-.11-.29-.2V2.2c0-.09.12-.2.29-.2H22.64m0-2H7.36A2.25,2.25,0,0,0,5.07,2.2V27.8A2.25,2.25,0,0,0,7.36,30H22.64a2.25,2.25,0,0,0,2.29-2.2V2.2A2.25,2.25,0,0,0,22.64,0Z"/><rect class="cls-1" x="5.46" y="22.24" width="18.45" height="2"/><rect class="cls-1" x="6.42" y="3.56" width="18.15" height="2"/><circle class="cls-1" cx="15" cy="26.14" r="1.16"/></svg>