<svg id="Layer_1" data-name="Layer 1" xmlns="http://www.w3.org/2000/svg" viewBox="0 0 30 30"><defs><style>.cls-1{fill:#313132;}</style></defs><path class="cls-1" d="M20.89,29.17H9.11A1.87,1.87,0,0,1,7.24,27.3V18.64a1.87,1.87,0,0,1,1.87-1.87H20.89a1.87,1.87,0,0,1,1.87,1.87V27.3A1.87,1.87,0,0,1,20.89,29.17Zm-11.65-2H20.76v-8.4H9.24Z"/><path class="cls-1" d="M18.07,18.77H12a1,1,0,0,1-1-1V15.41a4.06,4.06,0,1,1,8.11,0v2.36A1,1,0,0,1,18.07,18.77Zm-5.11-2h4.11V15.41a2.06,2.06,0,1,0-4.11,0Z"/><path class="cls-1" d="M26.92,20.83H24.16v-2h2.76a1,1,0,0,0,1-1V3.18a1,1,0,0,0-1-1H3.08a1,1,0,0,0-1,1V17.82a1,1,0,0,0,1,1h3v2h-3a3,3,0,0,1-3-3V3.18a3,3,0,0,1,3-3H26.92a3,3,0,0,1,3,3V17.82A3,3,0,0,1,26.92,20.83Z"/><path class="cls-1" d="M25.28,7.65h-9a1,1,0,0,1,0-2h9a1,1,0,0,1,0,2Z"/><path class="cls-1" d="M26.28,10.54a1,1,0,0,1-1,1H19a5.43,5.43,0,0,0-3.45-1.66,1,1,0,0,1,.75-.34h9A1,1,0,0,1,26.28,10.54Z"/><path class="cls-1" d="M26.28,14.42a1,1,0,0,1-1,1H21.89a3.32,3.32,0,0,0-1-.15h-.33a5.21,5.21,0,0,0-.37-1.85h5.09A1,1,0,0,1,26.28,14.42Z"/><path class="cls-1" d="M8.34,5.06A3.23,3.23,0,0,0,5.12,8.28a3.13,3.13,0,0,0,.93,2.24,3.17,3.17,0,0,0,4.58,0,3.13,3.13,0,0,0,.93-2.24A3.23,3.23,0,0,0,8.34,5.06Zm0,2A1.22,1.22,0,1,1,7.12,8.28,1.22,1.22,0,0,1,8.34,7.06Z"/><path class="cls-1" d="M11.58,11.05a5.45,5.45,0,0,0-1.32,1.51,1.26,1.26,0,0,0-.74-.24H7.16A1.28,1.28,0,0,0,5.88,13.6v.76H9.57a4.53,4.53,0,0,0-.09.91H9.12a3.37,3.37,0,0,0-2.48,1.09H4.88a1,1,0,0,1-1-1V13.6a3.26,3.26,0,0,1,2.17-3.08,3.17,3.17,0,0,0,4.58,0A3.05,3.05,0,0,1,11.58,11.05Z"/></svg>