<svg id="Layer_1" data-name="Layer 1"
    xmlns="http://www.w3.org/2000/svg" viewBox="0 0 200 200">
    <defs>
        <style>.cls-1{fill:none;}</style>
    </defs>
    <rect class="cls-1" width="200" height="200"/>
    <path d="M130.79,184.42H68.65a15,15,0,0,1-15-15V30.58a15,15,0,0,1,15-15h62.14a15,15,0,0,1,15,15V169.42A15,15,0,0,1,130.79,184.42Zm9-31.89V37.14a6.32,6.32,0,0,0-6.32-6.32H66a6.32,6.32,0,0,0-6.32,6.32V152.53A6.32,6.32,0,0,0,66,158.86h67.46A6.32,6.32,0,0,0,139.77,152.53ZM113.3,22.88h0A1.88,1.88,0,0,0,111.42,21H89.31a1.88,1.88,0,0,0-1.88,1.88h0a1.88,1.88,0,0,0,1.88,1.89h22.11A1.88,1.88,0,0,0,113.3,22.88ZM99.72,162.45a8.12,8.12,0,1,0,8.11,8.11A8.11,8.11,0,0,0,99.72,162.45Z"/>
    <path d="M77.84,83.7h3a0,0,0,0,1,0,0v6.41a1.5,1.5,0,0,1-1.5,1.5h0a1.5,1.5,0,0,1-1.5-1.5V83.7A0,0,0,0,1,77.84,83.7Z" transform="translate(85.22 -30.43) rotate(45)"/>
    <path d="M92.74,73.48h3a0,0,0,0,1,0,0v6.41a1.5,1.5,0,0,1-1.5,1.5h0a1.5,1.5,0,0,1-1.5-1.5V73.48a0,0,0,0,1,0,0Z" transform="translate(215.64 65.55) rotate(135)"/>
    <path d="M98.47,67.76h3a0,0,0,0,1,0,0v6.41a1.5,1.5,0,0,1-1.5,1.5h0a1.5,1.5,0,0,1-1.5-1.5V67.76A0,0,0,0,1,98.47,67.76Z" transform="translate(221.36 51.73) rotate(135)"/>
    <path d="M104.07,62.16h3a0,0,0,0,1,0,0v6.41a1.5,1.5,0,0,1-1.5,1.5h0a1.5,1.5,0,0,1-1.5-1.5V62.16a0,0,0,0,1,0,0Z" transform="translate(226.96 38.22) rotate(135)"/>
    <path d="M115.25,61.2l-9.45-9.46,6.47-6.47-.23-.22a2.6,2.6,0,1,1,3.68-3.68l9.9,9.9A2.6,2.6,0,0,1,121.94,55l-.22-.22ZM110,51.74,115.25,57l4.63-4.63a2.64,2.64,0,0,1,1.79-.77l-6.24-6.24a2.55,2.55,0,0,1-.76,1.79Z"/>
    <path d="M84.5,88.2a2.72,2.72,0,0,1-2-.81l-3-2.94a2.77,2.77,0,0,1,0-3.9l1.83-1.83-1-1a2.63,2.63,0,0,1-.77-1.85,2.53,2.53,0,0,1,.75-1.8l22.35-22.36-.44-.44a2.57,2.57,0,1,1,3.63-3.63l13.47,13.48a2.58,2.58,0,0,1,0,3.65,2.63,2.63,0,0,1-3.65,0l-.45-.44L93,86.63a2.49,2.49,0,0,1-1.85.74,2.55,2.55,0,0,1-1.8-.77l-1-1-1.82,1.82A2.76,2.76,0,0,1,84.5,88.2Zm-2.6-5.7,2.6,2.6,1.83-1.84a2.82,2.82,0,0,1,3.88,0l.94.94L113.5,61.84a2.56,2.56,0,0,1,1.66-.74l-9.27-9.26a2.52,2.52,0,0,1-.73,1.65L82.8,75.85l.93.94a2.72,2.72,0,0,1,0,3.87Zm35.36-19.29Z"/>
    <rect x="81.72" y="103.2" width="6" height="6"/>
    <rect x="96.72" y="115.2" width="3" height="3"/>
    <rect x="99.72" y="112.2" width="3" height="3"/>
    <rect x="96.72" y="109.2" width="3" height="3"/>
    <rect x="99.72" y="106.2" width="3" height="3"/>
    <rect x="96.72" y="103.2" width="3" height="3"/>
    <rect x="99.72" y="100.2" width="3" height="3"/>
    <rect x="99.72" y="103.2" width="3" height="3"/>
    <rect x="96.72" y="97.2" width="3" height="3"/>
    <rect x="75.72" y="118.2" width="3" height="3"/>
    <rect x="81.72" y="118.2" width="3" height="3"/>
    <rect x="90.72" y="118.2" width="3" height="3"/>
    <rect x="99.72" y="118.2" width="3" height="3"/>
    <rect x="105.72" y="118.2" width="3" height="3"/>
    <rect x="111.72" y="118.2" width="3" height="3"/>
    <rect x="117.72" y="118.2" width="3" height="3"/>
    <rect x="78.72" y="121.2" width="3" height="3"/>
    <rect x="84.72" y="121.2" width="3" height="3"/>
    <rect x="96.72" y="121.2" width="3" height="3"/>
    <rect x="90.72" y="121.2" width="3" height="3"/>
    <rect x="102.72" y="121.2" width="3" height="3"/>
    <rect x="105.72" y="121.2" width="3" height="3"/>
    <rect x="108.72" y="121.2" width="3" height="3"/>
    <rect x="114.72" y="121.2" width="3" height="3"/>
    <rect x="117.72" y="121.2" width="3" height="3"/>
    <rect x="99.72" y="124.2" width="3" height="3"/>
    <rect x="105.72" y="124.2" width="3" height="3"/>
    <rect x="111.72" y="124.2" width="3" height="3"/>
    <rect x="114.72" y="124.2" width="3" height="3"/>
    <rect x="120.72" y="124.2" width="3" height="3"/>
    <rect x="96.72" y="127.2" width="3" height="3"/>
    <rect x="99.72" y="127.2" width="3" height="3"/>
    <rect x="102.72" y="127.2" width="3" height="3"/>
    <rect x="111.72" y="127.2" width="3" height="3"/>
    <rect x="117.72" y="127.2" width="3" height="3"/>
    <rect x="105.72" y="130.2" width="3" height="3"/>
    <rect x="108.72" y="130.2" width="3" height="3"/>
    <rect x="114.72" y="130.2" width="3" height="3"/>
    <rect x="117.72" y="130.2" width="3" height="3"/>
    <rect x="96.72" y="133.2" width="3" height="3"/>
    <rect x="99.72" y="133.2" width="3" height="3"/>
    <rect x="105.72" y="133.2" width="3" height="3"/>
    <rect x="111.72" y="133.2" width="3" height="3"/>
    <rect x="114.72" y="133.2" width="3" height="3"/>
    <rect x="120.72" y="133.2" width="3" height="3"/>
    <rect x="99.72" y="136.2" width="3" height="3"/>
    <rect x="102.72" y="136.2" width="3" height="3"/>
    <rect x="108.72" y="136.2" width="3" height="3"/>
    <rect x="114.72" y="136.2" width="3" height="3"/>
    <rect x="117.72" y="136.2" width="3" height="3"/>
    <rect x="120.72" y="136.2" width="3" height="3"/>
    <rect x="96.72" y="139.2" width="3" height="3"/>
    <rect x="102.72" y="139.2" width="3" height="3"/>
    <rect x="105.72" y="139.2" width="3" height="3"/>
    <rect x="111.72" y="139.2" width="3" height="3"/>
    <rect x="117.72" y="139.2" width="3" height="3"/>
    <rect x="99.72" y="142.2" width="3" height="3"/>
    <rect x="108.72" y="142.2" width="3" height="3"/>
    <rect x="117.72" y="142.2" width="3" height="3"/>
    <path d="M90.72,100.2v12h-12v-12h12m3-3h-18v18h18v-18Z"/>
    <rect x="81.72" y="133.18" width="6" height="6"/>
    <path d="M90.72,130.18v12h-12v-12h12m3-3h-18v18h18v-18Z"/>
    <rect x="111.72" y="103.2" width="6" height="6"/>
    <path d="M120.72,100.2v12h-12v-12h12m3-3h-18v18h18v-18Z"/>
</svg>