<svg id="Layer_1" data-name="Layer 1" xmlns="http://www.w3.org/2000/svg" viewBox="0 0 120 120"><defs><style>.cls-1{fill:#335c85;}.cls-2{fill:#036;}.cls-3{fill:#8099b3;}.cls-4{fill:#fcba19;}</style></defs><path class="cls-1" d="M78.86,29.09V40.24H72V28.73a12.11,12.11,0,1,0-24.22,0V40.24H41.14V29.09a18.86,18.86,0,0,1,37.72,0Z"/><path class="cls-2" d="M78.86,42.24H72a2,2,0,0,1-2-2V28.73a10.11,10.11,0,1,0-20.22,0V40.24a2,2,0,0,1-2,2H41.14a2,2,0,0,1-2-2V29.09a20.86,20.86,0,0,1,41.72,0V40.24A2,2,0,0,1,78.86,42.24Zm-4.86-4h2.86V29.09a16.86,16.86,0,0,0-33.72,0v9.15h2.64V28.73a14.11,14.11,0,1,1,28.22,0Z"/><circle class="cls-3" cx="60" cy="73.54" r="38.06"/><path class="cls-2" d="M60,113.61a40.07,40.07,0,1,1,40.06-40.07A40.11,40.11,0,0,1,60,113.61Zm0-76.13A36.07,36.07,0,1,0,96.06,73.54,36.11,36.11,0,0,0,60,37.48Z"/><rect class="cls-4" x="57.71" y="49.11" width="4.57" height="24.43" rx="2.29"/><rect class="cls-4" x="69.43" y="69.93" width="4.57" height="29.38" rx="2.29" transform="translate(-39.21 84.11) rotate(-49.46)"/><circle class="cls-1" cx="60" cy="73.54" r="5.27"/><path class="cls-2" d="M60,80.82a7.28,7.28,0,1,1,7.27-7.28A7.29,7.29,0,0,1,60,80.82Zm0-10.55a3.28,3.28,0,1,0,3.27,3.27A3.28,3.28,0,0,0,60,70.27Z"/><circle class="cls-1" cx="60" cy="104.41" r="2.29"/><circle class="cls-1" cx="60" cy="42.67" r="2.29"/><circle class="cls-1" cx="90.87" cy="73.54" r="2.29"/><circle class="cls-1" cx="29.13" cy="73.54" r="2.29"/></svg>