<?xml version="1.0" encoding="UTF-8"?><svg id="Layer_1" xmlns="http://www.w3.org/2000/svg" viewBox="0 0 200 200"><defs><style>.cls-1{fill:#335c85;}.cls-1,.cls-2,.cls-3{stroke-width:0px;}.cls-2{fill:#036;}.cls-3{fill:#8099b3;}</style></defs><path class="cls-3" d="m74.18,110.91H25.88c-6.91,0-12.51,5.6-12.51,12.51v26.59c0,6.91,5.6,12.51,12.51,12.51h4.7v17.5l24.04-17.5h19.55c6.91,0,12.51-5.6,12.51-12.51v-26.59c0-6.91-5.6-12.51-12.51-12.51Z"/><path class="cls-2" d="m30.58,182.01c-.31,0-.62-.07-.91-.22-.67-.34-1.09-1.03-1.09-1.78v-15.5h-2.7c-8,0-14.51-6.51-14.51-14.51v-26.59c0-8,6.51-14.51,14.51-14.51h48.29c8,0,14.51,6.51,14.51,14.51v26.59c0,8-6.51,14.51-14.51,14.51h-18.9l-23.52,17.12c-.35.25-.76.38-1.18.38Zm-4.7-69.1c-5.79,0-10.51,4.71-10.51,10.51v26.59c0,5.79,4.71,10.51,10.51,10.51h4.7c1.1,0,2,.9,2,2v13.57l20.87-15.19c.34-.25.75-.38,1.18-.38h19.55c5.79,0,10.51-4.71,10.51-10.51v-26.59c0-5.79-4.71-10.51-10.51-10.51H25.88Z"/><circle class="cls-2" cx="31.48" cy="136.87" r="5.45"/><circle class="cls-1" cx="50.01" cy="136.87" r="5.45"/><circle class="cls-1" cx="68.58" cy="136.87" r="5.45"/><path class="cls-3" d="m127.98,21.79h48.29c6.91,0,12.51,5.6,12.51,12.51v26.59c0,6.91-5.6,12.51-12.51,12.51h-4.7s0,17.5,0,17.5l-24.04-17.5h-19.55c-6.91,0-12.51-5.6-12.51-12.51v-26.59c0-6.91,5.6-12.51,12.51-12.51Z"/><path class="cls-2" d="m171.57,92.89c-.42,0-.83-.13-1.18-.38l-23.52-17.12h-18.9c-8,0-14.51-6.51-14.51-14.51v-26.59c0-8,6.51-14.51,14.51-14.51h48.29c8,0,14.51,6.51,14.51,14.51v26.59c0,8-6.51,14.51-14.51,14.51h-2.7v15.5c0,.75-.42,1.44-1.09,1.78-.29.15-.6.22-.91.22ZM127.98,23.79c-5.79,0-10.51,4.71-10.51,10.51v26.59c0,5.79,4.71,10.51,10.51,10.51h19.55c.42,0,.83.13,1.18.38l20.87,15.19v-13.57c0-1.1.9-2,2-2h4.7c5.79,0,10.51-4.71,10.51-10.51v-26.59c0-5.79-4.71-10.51-10.51-10.51h-48.29Z"/><circle class="cls-2" cx="133.57" cy="47.75" r="5.45"/><circle class="cls-1" cx="152.11" cy="47.75" r="5.45"/><circle class="cls-1" cx="170.67" cy="47.75" r="5.45"/></svg>