<svg xmlns="http://www.w3.org/2000/svg" xmlns:xlink="http://www.w3.org/1999/xlink" width="250" height="250"
  viewBox="0 0 250 250">
  <defs>
    <clipPath id="clip-path">
      <rect id="Rectangle_1583" data-name="Rectangle 1583" width="250" height="250" fill="none" />
    </clipPath>
    <clipPath id="clip-path-3">
      <rect id="Rectangle_1578" data-name="Rectangle 1578" width="5" height="32.021" fill="none" />
    </clipPath>
    <clipPath id="clip-path-4">
      <rect id="Rectangle_1579" data-name="Rectangle 1579" width="5" height="27.66" fill="none" />
    </clipPath>
    <clipPath id="clip-path-5">
      <rect id="Rectangle_1580" data-name="Rectangle 1580" width="5" height="17.766" fill="none" />
    </clipPath>
    <clipPath id="clip-path-6">
      <rect id="Rectangle_1581" data-name="Rectangle 1581" width="5" height="12.235" fill="none" />
    </clipPath>
  </defs>
  <g id="Group_2212" data-name="Group 2212" transform="translate(-0.5 -0.5)">
    <g id="Group_2211" data-name="Group 2211" transform="translate(0.5 0.5)" clip-path="url(#clip-path)">
      <g id="Group_2210" data-name="Group 2210">
        <g id="Group_2209" data-name="Group 2209" clip-path="url(#clip-path)">
          <path id="Path_511" data-name="Path 511"
            d="M134.007,172.22v3.25a14.4,14.4,0,0,0,14.387,14.4h25.588v15.038a8.81,8.81,0,0,1-8.812,8.812H54.632a8.81,8.81,0,0,1-8.812-8.812V120.32a8.81,8.81,0,0,0,8.813,8.813H165.169a8.818,8.818,0,0,1,8.813,8.813v19.887H148.394a14.39,14.39,0,0,0-14.387,14.387"
            transform="translate(10.987 29.612)" fill="#8099b3" />
          <path id="Path_512" data-name="Path 512"
            d="M134.007,172.22v3.25a14.4,14.4,0,0,0,14.387,14.4h25.588v15.038a8.81,8.81,0,0,1-8.812,8.812H54.632a8.81,8.81,0,0,1-8.812-8.812V120.32a8.81,8.81,0,0,0,8.813,8.813H165.169a8.818,8.818,0,0,1,8.813,8.813v19.887H148.394A14.39,14.39,0,0,0,134.007,172.22Z"
            transform="translate(10.987 29.612)" fill="none" stroke="#036" stroke-miterlimit="10" stroke-width="4" />
          <path id="Path_513" data-name="Path 513"
            d="M147.544,122.082V130.9H54.63a8.813,8.813,0,0,1,0-17.625h84.1a8.819,8.819,0,0,1,8.814,8.812"
            transform="translate(10.987 27.849)" fill="#335c85" />
          <path id="Path_514" data-name="Path 514"
            d="M147.544,122.082V130.9H54.63a8.813,8.813,0,0,1,0-17.625h84.1A8.819,8.819,0,0,1,147.544,122.082Z"
            transform="translate(10.987 27.849)" fill="none" stroke="#036" stroke-linecap="round" stroke-miterlimit="10"
            stroke-width="4" />
          <path id="Path_515" data-name="Path 515"
            d="M163.63,150.33v32.038H130.756a14.4,14.4,0,0,1-14.388-14.4v-3.25a14.39,14.39,0,0,1,14.388-14.387Z"
            transform="translate(28.624 37.114)" fill="#8099b3" />
          <path id="Path_516" data-name="Path 516"
            d="M163.63,150.33v32.038H130.756a14.4,14.4,0,0,1-14.388-14.4v-3.25a14.39,14.39,0,0,1,14.388-14.387Z"
            transform="translate(28.624 37.114)" fill="none" stroke="#036" stroke-linejoin="round" stroke-width="4" />
          <circle id="Ellipse_62" data-name="Ellipse 62" cx="5.166" cy="5.166" r="5.166"
            transform="translate(155.32 198.288)" fill="none" stroke="#036" stroke-miterlimit="10" stroke-width="4" />
          <path id="Path_517" data-name="Path 517"
            d="M154.272,112.732H61.5a7.643,7.643,0,0,1-7.644-7.644V47.971A7.644,7.644,0,0,1,61.5,40.327h92.771a7.644,7.644,0,0,1,7.644,7.645v57.116a7.644,7.644,0,0,1-7.644,7.644"
            transform="translate(12.996 9.614)" fill="#f9f1c6" />
          <rect id="Rectangle_1576" data-name="Rectangle 1576" width="108.059" height="72.405" rx="6.115"
            transform="translate(66.854 49.94)" fill="none" stroke="#fcba19" stroke-linejoin="round" stroke-width="4" />
          <line id="Line_57" data-name="Line 57" x2="52.002" transform="translate(79.55 92.461)" fill="none"
            stroke="#fcba19" stroke-linecap="round" stroke-linejoin="round" stroke-width="4" />
          <rect id="Rectangle_1577" data-name="Rectangle 1577" width="108.06" height="11.894"
            transform="translate(66.853 68.858)" fill="#fcba19" />
          <line id="Line_58" data-name="Line 58" y1="27.021" transform="translate(90.245 13.441)" fill="none"
            stroke="#036" stroke-linecap="round" stroke-miterlimit="10" stroke-width="4" />
          <g id="Group_2199" data-name="Group 2199" transform="translate(149.022 10.942)" opacity="0.5">
            <g id="Group_2198" data-name="Group 2198">
              <g id="Group_2197" data-name="Group 2197" clip-path="url(#clip-path-3)">
                <line id="Line_59" data-name="Line 59" y1="27.021" transform="translate(2.499 2.5)" fill="none"
                  stroke="#036" stroke-linecap="round" stroke-miterlimit="10" stroke-width="4" />
              </g>
            </g>
          </g>
          <line id="Line_60" data-name="Line 60" y1="6.382" transform="translate(136.388 34.08)" fill="none"
            stroke="#036" stroke-linecap="round" stroke-miterlimit="10" stroke-width="4" />
          <line id="Line_61" data-name="Line 61" y1="19.361" transform="translate(136.388 6.208)" fill="none"
            stroke="#036" stroke-linecap="round" stroke-miterlimit="10" stroke-width="4" />
          <g id="Group_2202" data-name="Group 2202" transform="translate(117.051 15.303)" opacity="0.75">
            <g id="Group_2201" data-name="Group 2201">
              <g id="Group_2200" data-name="Group 2200" clip-path="url(#clip-path-4)">
                <line id="Line_62" data-name="Line 62" y1="22.66" transform="translate(2.5 2.5)" fill="none"
                  stroke="#036" stroke-linecap="round" stroke-miterlimit="10" stroke-width="4" />
              </g>
            </g>
          </g>
          <g id="Group_2205" data-name="Group 2205" transform="translate(100.191 25.197)" opacity="0.5">
            <g id="Group_2204" data-name="Group 2204">
              <g id="Group_2203" data-name="Group 2203" clip-path="url(#clip-path-5)">
                <line id="Line_63" data-name="Line 63" y1="12.766" transform="translate(2.5 2.5)" fill="none"
                  stroke="#036" stroke-linecap="round" stroke-miterlimit="10" stroke-width="4" />
              </g>
            </g>
          </g>
          <g id="Group_2208" data-name="Group 2208" transform="translate(100.191 3.707)" opacity="0.5">
            <g id="Group_2207" data-name="Group 2207">
              <g id="Group_2206" data-name="Group 2206" clip-path="url(#clip-path-6)">
                <line id="Line_64" data-name="Line 64" y1="7.234" transform="translate(2.5 2.501)" fill="none"
                  stroke="#036" stroke-linecap="round" stroke-miterlimit="10" stroke-width="4" />
              </g>
            </g>
          </g>
        </g>
      </g>
    </g>
  </g>
</svg>