<?xml version="1.0" encoding="UTF-8"?><svg id="Layer_1" xmlns="http://www.w3.org/2000/svg" viewBox="0 0 80 80"><defs><style>.cls-1{fill:#fcba19;}.cls-2{fill:#f9f1c6;}.cls-3{fill:#036;}.cls-4{fill:#8099b3;}</style></defs><g><g><rect class="cls-4" x="11.78" y="12.26" width="48.58" height="30.6" rx="3.79" ry="3.79" transform="translate(24.98 -16.46) rotate(38.48)"/><path class="cls-3" d="M44.94,55.11c-1.3,0-2.56-.44-3.59-1.26L9.26,28.34c-2.5-1.99-2.92-5.63-.93-8.13L22.65,2.19c1.99-2.5,5.63-2.91,8.13-.93L62.88,26.77c2.5,1.99,2.92,5.63,.93,8.13l-14.33,18.02c-.96,1.21-2.34,1.97-3.87,2.15-.22,.03-.45,.04-.67,.04ZM27.19,4c-.53,0-1.05,.23-1.4,.67L11.46,22.7c-.61,.77-.48,1.9,.29,2.51l32.1,25.51c.37,.3,.84,.43,1.32,.38s.9-.29,1.2-.66l14.33-18.02c.61-.77,.48-1.9-.29-2.51L28.3,4.39c-.33-.26-.72-.39-1.11-.39Z"/></g><circle class="cls-3" cx="26.88" cy="12.01" r="2.99"/><rect class="cls-3" x="29.37" y="21.39" width="28.81" height="3.02" transform="translate(23.76 -22.27) rotate(38.48)"/><rect class="cls-3" x="25.67" y="26.05" width="28.81" height="3.02" transform="translate(25.85 -18.95) rotate(38.48)"/><rect class="cls-3" x="20.41" y="31.3" width="28.81" height="6.73" rx="1.35" ry="1.35" transform="translate(29.13 -14.14) rotate(38.48)"/></g><g><g><path class="cls-2" d="M57.68,78H26.38c-.93,0-1.71-.65-1.88-1.55l-6.46-35.61c-.19-1.03,.73-2,1.89-2h44.19c1.15,0,2.07,.97,1.89,2l-6.46,35.61c-.16,.91-.94,1.55-1.88,1.55Z"/><path class="cls-1" d="M57.68,80H26.38c-1.89,0-3.51-1.34-3.84-3.19l-6.46-35.61c-.19-1.04,.1-2.11,.8-2.94,.75-.9,1.87-1.42,3.05-1.42h44.19c1.19,0,2.3,.52,3.06,1.42,.7,.83,.99,1.9,.8,2.94l-6.46,35.61c-.34,1.85-1.95,3.19-3.84,3.19Zm0-4v0h0Zm-31.22,0h31.15l6.38-35.16H20.08s6.38,35.16,6.38,35.16Z"/></g><g><path class="cls-1" d="M43.42,71.55h-2.79c-.79,0-1.43-.7-1.46-1.58l-.78-23.15c-.03-.83,.61-1.53,1.39-1.53h4.49c.79,0,1.42,.69,1.39,1.53l-.78,23.15c-.03,.88-.67,1.58-1.46,1.58Z"/><path class="cls-1" d="M33.89,71.55h-2.88c-.75,0-1.37-.58-1.47-1.38l-2.93-23.17c-.11-.89,.6-1.71,1.48-1.71h4.66c.75,0,1.36,.59,1.4,1.35l1.29,23.13c.05,.96-.66,1.78-1.56,1.78Z"/><path class="cls-1" d="M53.23,71.55h-2.76c-.86,0-1.55-.82-1.5-1.78l1.19-23.13c.04-.76,.62-1.35,1.34-1.35h4.46c.85,0,1.53,.81,1.43,1.71l-2.76,23.17c-.09,.8-.69,1.38-1.41,1.38Z"/></g></g></svg>