<svg width="50" height="50" viewBox="0 0 50 50" fill="none" xmlns="http://www.w3.org/2000/svg">
<rect width="49.5157" height="50" rx="5" fill="#917952"/>
<path d="M26.2578 29.6H29.2578V23H35.8578V20H29.2578V13.4H26.2578V20H19.6578V23H26.2578V29.6ZM13.7578 38.5C12.9578 38.5 12.2578 38.2 11.6578 37.6C11.0578 37 10.7578 36.3 10.7578 35.5V7.5C10.7578 6.7 11.0578 6 11.6578 5.4C12.2578 4.8 12.9578 4.5 13.7578 4.5H41.7578C42.5578 4.5 43.2578 4.8 43.8578 5.4C44.4578 6 44.7578 6.7 44.7578 7.5V35.5C44.7578 36.3 44.4578 37 43.8578 37.6C43.2578 38.2 42.5578 38.5 41.7578 38.5H13.7578ZM13.7578 35.5H41.7578V7.5H13.7578V35.5ZM7.75781 44.5C6.95781 44.5 6.25781 44.2 5.65781 43.6C5.05781 43 4.75781 42.3 4.75781 41.5V10.5H7.75781V41.5H38.7578V44.5H7.75781ZM13.7578 7.5V35.5V7.5Z" fill="black"/>
</svg>
