<svg width="120" height="115" viewBox="0 0 120 115" fill="none" xmlns="http://www.w3.org/2000/svg">

<g filter="url(#filter0_dd_31108_2120)">
<rect x="16.1546" y="17.3169" width="87.6187" height="82.1901" rx="4" fill="#f9f1c6"/>
<path d="M64.6624 83.4272H60.6426V87.2216H64.6624V83.4272Z" fill="#1A1A1A"/>
<path d="M60.6399 79.6318H56.6201V83.4262H60.6399V79.6318Z" fill="#1A1A1A"/>
<path d="M64.6624 75.8374H60.6426V79.6317H64.6624V75.8374Z" fill="#1A1A1A"/>
<path d="M64.6624 72.0444H60.6426V75.8388H64.6624V72.0444Z" fill="#1A1A1A"/>
<path d="M60.6399 68.2378H56.6201V72.0321H60.6399V68.2378Z" fill="#1A1A1A"/>
<path d="M64.6624 64.4453H60.6426V68.2396H64.6624V64.4453Z" fill="#1A1A1A"/>
<path d="M92.8818 68.043H88.862V71.8373H92.8818V68.043Z" fill="#1A1A1A"/>
<path d="M88.8734 64.4453H84.8536V68.2396H88.8734V64.4453Z" fill="#1A1A1A"/>
<path d="M84.749 60.6509H80.7292V64.4452H84.749V60.6509Z" fill="#1A1A1A"/>
<path d="M64.6624 60.6509H60.6426V64.4452H64.6624V60.6509Z" fill="#1A1A1A"/>
<path d="M60.6399 56.8564H56.6201V60.6508H60.6399V56.8564Z" fill="#1A1A1A"/>
<path d="M64.6624 53.0532H60.6426V56.8475H64.6624V53.0532Z" fill="#1A1A1A"/>
<path d="M68.6783 56.8564H64.6585V60.6508H68.6783V56.8564Z" fill="#1A1A1A"/>
<path d="M76.7309 60.6509H72.7111V64.4452H76.7309V60.6509Z" fill="#1A1A1A"/>
<path d="M72.7132 56.8564H68.6934V60.6508H72.7132V56.8564Z" fill="#1A1A1A"/>
<path d="M76.5946 53.0532H72.5748V56.8475H76.5946V53.0532Z" fill="#1A1A1A"/>
<path d="M80.6468 56.9263H76.627V60.7206H80.6468V56.9263Z" fill="#1A1A1A"/>
<path d="M88.7692 56.9263H84.7494V60.7206H88.7692V56.9263Z" fill="#1A1A1A"/>
<path d="M92.8818 53.0425H88.862V56.8368H92.8818V53.0425Z" fill="#1A1A1A"/>
<path d="M56.6209 53.0532H52.6011V56.8475H56.6209V53.0532Z" fill="#1A1A1A"/>
<path d="M52.5909 56.8564H48.5711V60.6508H52.5909V56.8564Z" fill="#1A1A1A"/>
<path d="M44.5525 56.8564H40.5327V60.6508H44.5525V56.8564Z" fill="#1A1A1A"/>
<path d="M40.5335 53.0425H36.5137V56.8368H40.5335V53.0425Z" fill="#1A1A1A"/>
<path d="M40.5335 56.8564H36.5137V60.6508H40.5335V56.8564Z" fill="#1A1A1A"/>
<path d="M32.1762 53.0532H28.1564V56.8475H32.1762V53.0532Z" fill="#1A1A1A"/>
<path d="M60.6399 49.2578H56.6201V53.0521H60.6399V49.2578Z" fill="#1A1A1A"/>
<path d="M64.6624 45.4634H60.6426V49.2577H64.6624V45.4634Z" fill="#1A1A1A"/>
<path d="M60.6399 41.6689H56.6201V45.4633H60.6399V41.6689Z" fill="#1A1A1A"/>
<path d="M60.6399 37.8652H56.6201V41.6596H60.6399V37.8652Z" fill="#1A1A1A"/>
<path d="M60.6426 37.8676V34.0732H56.6228V37.8676H60.6426Z" fill="#1A1A1A"/>
<path d="M64.6665 37.8641V34.0698H60.6467V37.8641H64.6665Z" fill="#1A1A1A"/>
<path d="M64.6647 34.0668V30.2725H60.6449V34.0668H64.6647Z" fill="#1A1A1A"/>
<path d="M60.639 30.2733V26.479H56.6192V30.2733H60.639Z" fill="#1A1A1A"/>
<path d="M49.6232 28.4436V46.1833H30.8293V28.4436H49.6232ZM52.3066 25.9009H28.1564V48.7063H52.3066V25.9009Z" fill="#1A1A1A"/>
<path d="M35.3926 41.8638H45.061V32.7377H35.3926V41.8638Z" fill="#1A1A1A"/>
<path d="M49.6232 67.0074V84.7472H30.8293V67.0074H49.6232ZM52.3066 64.4746H28.1564V87.28H52.3066V64.4746Z" fill="#1A1A1A"/>
<path d="M35.3926 80.436H45.061V71.3099H35.3926V80.436Z" fill="#1A1A1A"/>
<path d="M90.1251 28.4436V46.1833H71.3312V28.4436H90.1251ZM92.8084 25.9009H68.6478V48.7063H92.8084V25.9009Z" fill="#1A1A1A"/>
<path d="M75.8927 41.8638H85.5611V32.7377H75.8927V41.8638Z" fill="#1A1A1A"/>
<path d="M84.7462 72.0728H76.6961V79.6713H84.7462V72.0728Z" fill="#1A1A1A"/>
<path d="M76.6978 64.4746H68.6478V72.0731H76.6978V64.4746Z" fill="#1A1A1A"/>
<path d="M92.808 79.6719H84.758V87.2704H92.808V79.6719Z" fill="#1A1A1A"/>
<path d="M68.6491 87.2808H76.6992V79.6822H68.6491V87.2808Z" fill="#1A1A1A"/>
<path fill-rule="evenodd" clip-rule="evenodd" d="M16.154 18.8886C16.154 17.5217 17.3225 16.4136 18.7638 16.4136H39.3788C40.8202 16.4136 41.9886 17.5217 41.9886 18.8886C41.9886 20.2555 40.8202 21.3636 39.3788 21.3636H21.3736V38.4865C21.3736 39.8534 20.2052 40.9615 18.7638 40.9615C17.3225 40.9615 16.154 39.8534 16.154 38.4865V18.8886Z" fill="#FCAF17"/>
<path fill-rule="evenodd" clip-rule="evenodd" d="M78.0111 18.8886C78.0111 17.5217 79.1796 16.4136 80.6209 16.4136H101.236C102.677 16.4136 103.846 17.5217 103.846 18.8886V38.4865C103.846 39.8534 102.677 40.9615 101.236 40.9615C99.7946 40.9615 98.6261 39.8534 98.6261 38.4865V21.3636H80.6209C79.1796 21.3636 78.0111 20.2555 78.0111 18.8886Z" fill="#FCAF17"/>
<path fill-rule="evenodd" clip-rule="evenodd" d="M101.236 75.0278C102.677 75.0278 103.846 76.1359 103.846 77.5029V97.1007C103.846 98.4677 102.677 99.5758 101.236 99.5758H80.6209C79.1796 99.5758 78.0111 98.4677 78.0111 97.1007C78.0111 95.7338 79.1796 94.6257 80.6209 94.6257H98.6261V77.5029C98.6261 76.1359 99.7946 75.0278 101.236 75.0278Z" fill="#FCAF17"/>
<path fill-rule="evenodd" clip-rule="evenodd" d="M18.7638 75.0273C20.2052 75.0273 21.3736 76.1355 21.3736 77.5024V94.6252H39.3788C40.8202 94.6252 41.9886 95.7333 41.9886 97.1003C41.9886 98.4672 40.8202 99.5753 39.3788 99.5753H18.7638C17.3225 99.5753 16.154 98.4672 16.154 97.1003V77.5024C16.154 76.1355 17.3225 75.0273 18.7638 75.0273Z" fill="#FCAF17"/>
</g>
<defs>
<filter id="filter0_dd_31108_2120" x="12.154" y="12.4136" width="95.6918" height="95.1621" filterUnits="userSpaceOnUse" color-interpolation-filters="sRGB">
<feFlood flood-opacity="0" result="BackgroundImageFix"/>
<feColorMatrix in="SourceAlpha" type="matrix" values="0 0 0 0 0 0 0 0 0 0 0 0 0 0 0 0 0 0 127 0" result="hardAlpha"/>
<feOffset/>
<feGaussianBlur stdDeviation="2"/>
<feComposite in2="hardAlpha" operator="out"/>
<feColorMatrix type="matrix" values="0 0 0 0 0 0 0 0 0 0 0 0 0 0 0 0 0 0 0.2 0"/>
<feBlend mode="normal" in2="BackgroundImageFix" result="effect1_dropShadow_31108_2120"/>
<feColorMatrix in="SourceAlpha" type="matrix" values="0 0 0 0 0 0 0 0 0 0 0 0 0 0 0 0 0 0 127 0" result="hardAlpha"/>
<feOffset dy="4"/>
<feGaussianBlur stdDeviation="2"/>
<feComposite in2="hardAlpha" operator="out"/>
<feColorMatrix type="matrix" values="0 0 0 0 0 0 0 0 0 0 0 0 0 0 0 0 0 0 0.15 0"/>
<feBlend mode="normal" in2="effect1_dropShadow_31108_2120" result="effect2_dropShadow_31108_2120"/>
<feBlend mode="normal" in="SourceGraphic" in2="effect2_dropShadow_31108_2120" result="shape"/>
</filter>
</defs>
</svg>
