<?xml version="1.0" encoding="UTF-8"?><svg id="Layer_1" xmlns="http://www.w3.org/2000/svg" viewBox="0 0 104 104"><defs><style>.cls-1{fill:#fcba19;}.cls-2{fill:#f9f1c6;}.cls-3{fill:#036;}.cls-4{fill:#e8e8e8;}.cls-5{fill:#335c85;}</style></defs><g><rect class="cls-5" x="24.77" y="21.59" width="50.57" height="59.65" rx="7.03" ry="7.03"/><path class="cls-3" d="M68.31,83.23H31.8c-4.98,0-9.03-4.05-9.03-9.03V28.62c0-4.98,4.05-9.03,9.03-9.03h36.51c4.98,0,9.03,4.05,9.03,9.03v45.59c0,4.98-4.05,9.03-9.03,9.03ZM31.8,23.59c-2.77,0-5.03,2.26-5.03,5.03v45.59c0,2.77,2.26,5.03,5.03,5.03h36.51c2.77,0,5.03-2.26,5.03-5.03V28.62c0-2.77-2.26-5.03-5.03-5.03H31.8Z"/></g><path class="cls-4" d="M64.94,37.02h-29.77c-1.38,0-2.5-1.12-2.5-2.5s1.12-2.5,2.5-2.5h29.77c1.38,0,2.5,1.12,2.5,2.5s-1.12,2.5-2.5,2.5Z"/><path class="cls-4" d="M64.94,49.98h-29.77c-1.38,0-2.5-1.12-2.5-2.5s1.12-2.5,2.5-2.5h29.77c1.38,0,2.5,1.12,2.5,2.5s-1.12,2.5-2.5,2.5Z"/><path class="cls-4" d="M43.72,62.93h-8.55c-1.38,0-2.5-1.12-2.5-2.5s1.12-2.5,2.5-2.5h8.55c1.38,0,2.5,1.12,2.5,2.5s-1.12,2.5-2.5,2.5Z"/><g><circle class="cls-2" cx="65.62" cy="72.81" r="13.6"/><path class="cls-1" d="M65.62,88.41c-8.6,0-15.6-7-15.6-15.6s7-15.6,15.6-15.6,15.6,7,15.6,15.6-7,15.6-15.6,15.6Zm0-27.21c-6.4,0-11.6,5.21-11.6,11.6s5.21,11.6,11.6,11.6,11.6-5.21,11.6-11.6-5.21-11.6-11.6-11.6Z"/></g><g><path class="cls-3" d="M65.62,80.36c-1.1,0-2-.9-2-2v-11.11c0-1.1,.9-2,2-2s2,.9,2,2v11.11c0,1.1-.9,2-2,2Z"/><path class="cls-3" d="M65.61,81.19l-6.59-6.59c-.78-.78-.78-2.05,0-2.83s2.05-.78,2.83,0l3.76,3.76,3.79-3.79c.78-.78,2.05-.78,2.83,0s.78,2.05,0,2.83l-6.62,6.62Z"/></g></svg>