<svg width="122" height="151" viewBox="0 0 122 151" fill="none" xmlns="http://www.w3.org/2000/svg">
<path fill-rule="evenodd" clip-rule="evenodd" d="M120.678 59.5616C121.319 88.8984 108.111 117.66 85.8317 134.668C85.3264 135.046 84.8284 135.434 84.3299 135.822C83.4104 136.538 82.4895 137.255 81.5197 137.917C78.1411 140.292 74.7069 142.601 71.2712 144.911C68.9591 146.465 66.6463 148.02 64.3492 149.596C63.3181 150.266 62.1 150.625 60.8529 150.625C59.6059 150.625 58.3877 150.266 57.3566 149.596L56.3132 148.884C51.1036 145.332 45.8791 141.769 40.6717 138.288C17.3245 122.784 2.09636 94.6544 1.08633 65.2247C0.956816 60.7678 1.00001 56.2861 1.04318 51.8072C1.06476 49.5688 1.08633 47.3311 1.08633 45.0975V26.2699C1.10372 24.3389 1.82498 22.4741 3.12585 20.9967C4.97604 18.955 7.55041 18.7714 10.1015 18.5894C11.1927 18.5116 12.2796 18.4341 13.3038 18.2116C23.7292 16.6224 33.8741 13.6606 43.4493 9.41053C47.9696 7.33209 52.3544 4.9945 56.5797 2.41054C57.6723 1.59072 58.9978 1.10443 60.3836 1.01501C61.7694 0.925592 63.1513 1.23719 64.3492 1.90922C77.6864 10.268 92.7282 15.8247 108.48 18.2116C108.94 18.2613 109.408 18.3064 109.879 18.3518C115.037 18.8484 120.589 19.3829 120.678 26.5113V59.5616ZM93.4255 45.971C95.699 45.9824 97.8763 46.8496 99.4856 48.3848C101.094 49.9171 102.014 51.9888 102.05 54.1593C102.019 56.3253 101.122 58.3979 99.544 59.9524L94.5132 64.7614L72.312 85.8727L58.3464 99.2042C56.725 100.715 54.5504 101.56 52.2862 101.56C50.022 101.56 47.8475 100.715 46.2261 99.2042L43.6038 96.6976L25.1708 79.0584C23.5922 77.5026 22.6898 75.4323 22.6457 73.2653C22.6482 72.1829 22.8747 71.1116 23.3122 70.1132C23.7496 69.1148 24.3894 68.2089 25.1946 67.4478C25.9998 66.6867 26.9546 66.0854 28.0039 65.6786C29.0532 65.2717 30.1763 65.0672 31.3087 65.077C33.5745 65.1067 35.7426 65.9637 37.3688 67.4723L39.991 69.9975L52.3639 81.825L73.3997 61.7163L87.3459 48.3848C88.9783 46.8714 91.1518 46.0085 93.4255 45.971Z" fill="#3193CC"/>
<path d="M85.8317 134.668L86.0566 134.968L86.0593 134.966L85.8317 134.668ZM120.678 59.5616H120.303L120.303 59.5698L120.678 59.5616ZM84.3299 135.822L84.0996 135.526L84.3299 135.822ZM81.5197 137.917L81.3082 137.607L81.304 137.61L81.5197 137.917ZM71.2712 144.911L71.4804 145.222L71.2712 144.911ZM64.3492 149.596L64.5537 149.91L64.5613 149.905L64.3492 149.596ZM57.3566 149.596L57.1453 149.906L57.1522 149.91L57.3566 149.596ZM56.3132 148.884L56.1019 149.194L56.1019 149.194L56.3132 148.884ZM40.6717 138.288L40.8801 137.976L40.8792 137.976L40.6717 138.288ZM1.08633 65.2247L0.71148 65.2356L0.711548 65.2376L1.08633 65.2247ZM1.04318 51.8072L1.41817 51.8108L1.04318 51.8072ZM1.08633 26.2699L0.711327 26.2665V26.2699H1.08633ZM3.12585 20.9967L2.84794 20.7449L2.8444 20.7489L3.12585 20.9967ZM10.1015 18.5894L10.0748 18.2154L10.1015 18.5894ZM13.3038 18.2116L13.2473 17.8409L13.2357 17.8426L13.2242 17.8451L13.3038 18.2116ZM43.4493 9.41053L43.6014 9.75331L43.606 9.75124L43.4493 9.41053ZM56.5797 2.41054L56.7753 2.73046L56.7905 2.72118L56.8048 2.71049L56.5797 2.41054ZM60.3836 1.01501L60.4077 1.38923V1.38923L60.3836 1.01501ZM64.3492 1.90922L64.5483 1.59146L64.5406 1.58663L64.5326 1.58217L64.3492 1.90922ZM108.48 18.2116L108.424 18.5823L108.431 18.5835L108.439 18.5844L108.48 18.2116ZM109.879 18.3518L109.843 18.725L109.879 18.3518ZM120.678 26.5113H121.053L121.053 26.5066L120.678 26.5113ZM99.4856 48.3848L99.2268 48.6561L99.227 48.6563L99.4856 48.3848ZM93.4255 45.971L93.4274 45.5959L93.4193 45.5961L93.4255 45.971ZM102.05 54.1593L102.425 54.1647L102.425 54.1532L102.05 54.1593ZM99.544 59.9524L99.8031 60.2235L99.8071 60.2196L99.544 59.9524ZM94.5132 64.7614L94.7716 65.0331L94.7723 65.0325L94.5132 64.7614ZM72.312 85.8727L72.0536 85.601L72.0531 85.6015L72.312 85.8727ZM58.3464 99.2042L58.602 99.4786L58.6053 99.4755L58.3464 99.2042ZM46.2261 99.2042L45.9669 99.4753L45.9704 99.4786L46.2261 99.2042ZM43.6038 96.6976L43.3446 96.9686L43.3447 96.9687L43.6038 96.6976ZM25.1708 79.0584L24.9075 79.3255L24.9115 79.3294L25.1708 79.0584ZM22.6457 73.2653L22.2706 73.2645L22.2708 73.273L22.6457 73.2653ZM23.3122 70.1132L22.9687 69.9627L23.3122 70.1132ZM25.1946 67.4478L24.937 67.1753V67.1753L25.1946 67.4478ZM31.3087 65.077L31.3136 64.7021L31.3119 64.7021L31.3087 65.077ZM37.3688 67.4723L37.629 67.2021L37.6239 67.1973L37.3688 67.4723ZM39.991 69.9975L39.7309 70.2676L39.7319 70.2685L39.991 69.9975ZM52.3639 81.825L52.1047 82.0961L52.3639 82.3438L52.623 82.0961L52.3639 81.825ZM73.3997 61.7163L73.6588 61.9874L73.3997 61.7163ZM87.3459 48.3848L87.0909 48.1098L87.0867 48.1137L87.3459 48.3848ZM86.0593 134.966C108.44 117.88 121.696 89.0014 121.053 59.5534L120.303 59.5698C120.941 88.7955 107.781 117.439 85.6042 134.369L86.0593 134.966ZM84.5603 136.118C85.0592 135.729 85.5545 135.344 86.0566 134.968L85.6069 134.367C85.0984 134.748 84.5976 135.138 84.0996 135.526L84.5603 136.118ZM81.7311 138.227C82.7122 137.557 83.6423 136.833 84.5603 136.118L84.0996 135.526C83.1785 136.243 82.2668 136.953 81.3082 137.607L81.7311 138.227ZM71.4804 145.222C74.9156 142.912 78.353 140.601 81.7353 138.224L81.304 137.61C77.9291 139.983 74.4982 142.289 71.062 144.599L71.4804 145.222ZM64.5613 149.905C66.8567 148.33 69.1681 146.776 71.4804 145.222L71.062 144.599C68.7501 146.154 66.4358 147.71 64.137 149.287L64.5613 149.905ZM60.8529 151C62.1715 151 63.4608 150.621 64.5536 149.91L64.1447 149.282C63.1754 149.912 62.0284 150.25 60.8529 150.25V151ZM57.1522 149.91C58.245 150.621 59.5344 151 60.8529 151V150.25C59.6774 150.25 58.5304 149.912 57.5611 149.282L57.1522 149.91ZM56.1019 149.194L57.1454 149.906L57.5679 149.286L56.5244 148.575L56.1019 149.194ZM40.4633 138.6C45.6691 142.08 50.8921 145.642 56.1019 149.194L56.5244 148.575C51.3151 145.022 46.0892 141.459 40.8801 137.976L40.4633 138.6ZM0.711548 65.2376C1.72548 94.7808 17.0102 123.026 40.4643 138.601L40.8792 137.976C17.6388 122.543 2.46724 94.5279 1.46111 65.2119L0.711548 65.2376ZM0.668201 51.8036C0.625043 56.2813 0.581729 60.7702 0.711486 65.2356L1.46117 65.2138C1.3319 60.7654 1.37498 56.291 1.41817 51.8108L0.668201 51.8036ZM0.711327 45.0975C0.711327 47.329 0.689779 49.5649 0.668201 51.8036L1.41817 51.8108C1.43974 49.5727 1.46133 47.3332 1.46133 45.0975H0.711327ZM0.711327 26.2699V45.0975H1.46133V26.2699H0.711327ZM2.8444 20.7489C1.48528 22.2925 0.72956 24.2435 0.711343 26.2665L1.46131 26.2733C1.47787 24.4342 2.16468 22.6558 3.40729 21.2445L2.8444 20.7489ZM10.0748 18.2154C7.55138 18.3953 4.81476 18.5745 2.84797 20.7449L3.40373 21.2485C5.13733 19.3354 7.54943 19.1474 10.1281 18.9635L10.0748 18.2154ZM13.2242 17.8451C12.2308 18.0609 11.1713 18.1372 10.0748 18.2154L10.1281 18.9635C11.214 18.886 12.3284 18.8072 13.3834 18.578L13.2242 17.8451ZM43.2972 9.06777C33.7526 13.3042 23.6399 16.2567 13.2473 17.8409L13.3603 18.5823C23.8185 16.9882 33.9955 14.017 43.6014 9.75328L43.2972 9.06777ZM56.3841 2.09062C52.1714 4.66686 47.7996 6.99751 43.2926 9.06982L43.606 9.75124C48.1396 7.66667 52.5374 5.32214 56.7753 2.73046L56.3841 2.09062ZM60.3594 0.640789C58.9021 0.734821 57.5066 1.24624 56.3546 2.1106L56.8048 2.71049C57.838 1.9352 59.0934 1.47404 60.4077 1.38923L60.3594 0.640789ZM64.5326 1.58217C63.2708 0.874273 61.8167 0.546759 60.3594 0.640789L60.4077 1.38923C61.7221 1.30442 63.0317 1.60011 64.1657 2.23627L64.5326 1.58217ZM108.536 17.8408C92.8346 15.4615 77.8415 9.92268 64.5483 1.59146L64.15 2.22697C77.5313 10.6134 92.6219 16.1878 108.424 18.5823L108.536 17.8408ZM109.915 17.9785C109.444 17.9331 108.978 17.8882 108.52 17.8387L108.439 18.5844C108.902 18.6344 109.372 18.6797 109.843 18.725L109.915 17.9785ZM121.053 26.5066C121.03 24.676 120.656 23.2394 120.003 22.1111C119.349 20.9806 118.429 20.1843 117.355 19.6135C115.233 18.4847 112.473 18.2247 109.915 17.9785L109.843 18.725C112.444 18.9754 115.038 19.231 117.003 20.2757C117.974 20.7917 118.781 21.4966 119.354 22.4867C119.928 23.4791 120.281 24.7824 120.303 26.516L121.053 26.5066ZM121.053 59.5616V26.5113H120.303V59.5616H121.053ZM99.7445 48.1135C98.0642 46.5106 95.7943 45.6079 93.4274 45.596L93.4236 46.346C95.6038 46.3569 97.6884 47.1887 99.2268 48.6561L99.7445 48.1135ZM102.425 54.1532C102.387 51.8796 101.424 49.7131 99.7443 48.1133L99.227 48.6563C100.765 50.1212 101.641 52.098 101.675 54.1655L102.425 54.1532ZM99.8071 60.2196C101.454 58.5976 102.392 56.4317 102.425 54.1647L101.675 54.1539C101.645 56.2189 100.79 58.1982 99.2808 59.6852L99.8071 60.2196ZM94.7723 65.0325L99.8031 60.2235L99.2848 59.6813L94.2541 64.4903L94.7723 65.0325ZM72.5704 86.1445L94.7716 65.0331L94.2548 64.4896L72.0536 85.601L72.5704 86.1445ZM58.6053 99.4755L72.5709 86.144L72.0531 85.6015L58.0875 98.933L58.6053 99.4755ZM52.2862 101.935C54.643 101.935 56.9096 101.056 58.602 99.4786L58.0908 98.9299C56.5404 100.374 54.4578 101.185 52.2862 101.185V101.935ZM45.9704 99.4786C47.6629 101.056 49.9295 101.935 52.2862 101.935V101.185C50.1146 101.185 48.032 100.374 46.4817 98.9299L45.9704 99.4786ZM43.3447 96.9687L45.9669 99.4753L46.4852 98.9332L43.863 96.4266L43.3447 96.9687ZM24.9115 79.3294L43.3446 96.9686L43.8631 96.4267L25.43 78.7875L24.9115 79.3294ZM22.2708 73.273C22.3169 75.5401 23.2611 77.7028 24.9075 79.3255L25.434 78.7913C23.9233 77.3024 23.0627 75.3245 23.0206 73.2577L22.2708 73.273ZM22.9687 69.9627C22.5107 71.008 22.2734 72.1301 22.2707 73.2645L23.0207 73.2662C23.0231 72.2356 23.2387 71.2152 23.6556 70.2637L22.9687 69.9627ZM24.937 67.1753C24.0959 67.9703 23.4266 68.9175 22.9687 69.9627L23.6556 70.2637C24.0726 69.312 24.6829 68.4475 25.4522 67.7203L24.937 67.1753ZM27.8683 65.3289C26.7744 65.7531 25.7781 66.3803 24.937 67.1753L25.4522 67.7204C26.2215 66.9932 27.1347 66.4178 28.1395 66.0282L27.8683 65.3289ZM31.3119 64.7021C30.1324 64.6918 28.9622 64.9048 27.8683 65.3289L28.1395 66.0282C29.1443 65.6386 30.2202 65.4426 31.3054 65.452L31.3119 64.7021ZM37.6239 67.1973C35.928 65.6241 33.6701 64.733 31.3136 64.7021L31.3037 65.452C33.4789 65.4805 35.5573 66.3033 37.1138 67.7472L37.6239 67.1973ZM40.2511 69.7273L37.6289 67.2021L37.1087 67.7424L39.7309 70.2676L40.2511 69.7273ZM52.623 81.5539L40.2501 69.7264L39.7319 70.2685L52.1047 82.0961L52.623 81.5539ZM73.1406 61.4452L52.1047 81.5539L52.623 82.0961L73.6588 61.9874L73.1406 61.4452ZM87.0867 48.1137L73.1406 61.4452L73.6588 61.9874L87.605 48.6559L87.0867 48.1137ZM93.4193 45.5961C91.0554 45.635 88.7927 46.5321 87.0909 48.1098L87.6008 48.6598C89.1638 47.2108 91.2482 46.3819 93.4317 46.346L93.4193 45.5961Z" fill="#3193CC"/>
</svg>
