<svg xmlns="http://www.w3.org/2000/svg" xmlns:xlink="http://www.w3.org/1999/xlink" width="184" height="184" viewBox="0 0 184 184">
  <defs>
    <clipPath id="clip-path">
      <circle id="Ellipse_153" data-name="Ellipse 153" cx="92" cy="92" r="92" transform="translate(0 0)" fill="#fff" stroke="#707070" stroke-width="1"/>
    </clipPath>
    <clipPath id="clip-path-2">
      <rect id="Rectangle_5463" data-name="Rectangle 5463" width="103.995" height="122.288" fill="none"/>
    </clipPath>
  </defs>
  <g id="Group_2341" data-name="Group 2341" transform="translate(-11753.859 -184.07)">
    <g id="Mask_Group_2317" data-name="Mask Group 2317" transform="translate(11753.859 184.07)" clip-path="url(#clip-path)">
      <g id="Information_received" data-name="Information received" transform="translate(0 0)">
        <rect id="Rectangle_4637" data-name="Rectangle 4637" width="184" height="184" fill="#f2dede"/>
        <g id="Group_10346" data-name="Group 10346" transform="translate(40.842 30.511)">
          <g id="Group_10345" data-name="Group 10345" clip-path="url(#clip-path-2)">
            <path id="Path_9571" data-name="Path 9571" d="M79.3,107.718H14.9A12.4,12.4,0,0,1,2.5,95.32V14.9A12.4,12.4,0,0,1,14.9,2.5H79.3A12.4,12.4,0,0,1,91.7,14.9V95.32a12.4,12.4,0,0,1-12.4,12.4" transform="translate(1.909 1.91)" fill="#335c85"/>
            <path id="Path_9572" data-name="Path 9572" d="M81.214,114.038H16.808A16.827,16.827,0,0,1,0,97.228V16.808A16.826,16.826,0,0,1,16.808,0H81.214A16.826,16.826,0,0,1,98.022,16.808V97.228a16.827,16.827,0,0,1-16.808,16.809M16.808,8.82A8,8,0,0,0,8.82,16.808V97.228a8,8,0,0,0,7.988,7.989H81.214A8,8,0,0,0,89.2,97.228V16.808A8,8,0,0,0,81.214,8.82Z" transform="translate(0 0)" fill="#036"/>
            <path id="Path_9573" data-name="Path 9573" d="M67.327,21.754H14.808a4.41,4.41,0,0,1,0-8.82H67.327a4.41,4.41,0,0,1,0,8.82" transform="translate(7.944 9.882)" fill="#fff"/>
            <path id="Path_9574" data-name="Path 9574" d="M67.327,34.709H14.808a4.41,4.41,0,0,1,0-8.82H67.327a4.41,4.41,0,0,1,0,8.82" transform="translate(7.944 19.78)" fill="#fff"/>
            <path id="Path_9575" data-name="Path 9575" d="M29.9,47.665H14.807a4.41,4.41,0,0,1,0-8.82H29.9a4.41,4.41,0,0,1,0,8.82" transform="translate(7.944 29.679)" fill="#fff"/>
            <path id="Path_9576" data-name="Path 9576" d="M77.738,64.113A24,24,0,1,1,53.744,40.119,23.995,23.995,0,0,1,77.738,64.113" transform="translate(22.728 30.652)" fill="#f2dede"/>
            <path id="Path_9577" data-name="Path 9577" d="M55.271,93.165A27.523,27.523,0,1,1,82.8,65.642,27.554,27.554,0,0,1,55.271,93.165m0-47.991A20.467,20.467,0,1,0,75.739,65.642,20.491,20.491,0,0,0,55.271,45.174" transform="translate(21.201 29.123)" fill="#a12622"/>
            <path id="Path_9578" data-name="Path 9578" d="M48.255,62.72a3.514,3.514,0,0,1-2.494-1.034l-7.825-7.823a3.528,3.528,0,1,1,4.99-4.989L48.255,54.2l5.377-5.377a3.528,3.528,0,1,1,4.989,4.989l-7.871,7.871a3.514,3.514,0,0,1-2.494,1.034" transform="translate(28.194 36.515)" fill="#a12622"/>
            <path id="Path_9579" data-name="Path 9579" d="M40.43,67.111a3.528,3.528,0,0,1-2.494-6.022l7.871-7.871a3.527,3.527,0,0,1,4.989,0l7.825,7.824a3.528,3.528,0,0,1-4.99,4.989L48.3,60.7l-5.377,5.377a3.514,3.514,0,0,1-2.494,1.034" transform="translate(28.194 39.87)" fill="#a12622"/>
          </g>
        </g>
      </g>
    </g>
    <g id="Ellipse_62" data-name="Ellipse 62" transform="translate(11753.859 184.07)" fill="none" stroke="#d3d3d3" stroke-width="3">
      <circle cx="92" cy="92" r="92" stroke="none"/>
      <circle cx="92" cy="92" r="90.5" fill="none"/>
    </g>
  </g>
</svg>
