<svg id="Layer_1" data-name="Layer 1" xmlns="http://www.w3.org/2000/svg" viewBox="0 0 35.5 35.5">
  <defs>
    <style>
      .cls-1 {
        fill: #dff0d8;
      }

      .cls-2 {
        fill: #2d4821;
      }
    </style>
  </defs>
  <circle class="cls-1" cx="17.75" cy="17.75" r="15.75" />
  <path class="cls-2"
    d="M17.75,35.5A17.75,17.75,0,1,1,35.5,17.75,17.77,17.77,0,0,1,17.75,35.5Zm0-31.5A13.75,13.75,0,1,0,31.5,17.75,13.77,13.77,0,0,0,17.75,4Z" />
  <path class="cls-2"
    d="M16.23,26.42a2,2,0,0,1-1.42-.58L9.15,20.17A2,2,0,0,1,12,17.35l4.12,4.12,8.66-10.22a2,2,0,1,1,3,2.58L17.75,25.71a2,2,0,0,1-1.44.71Z" />
</svg>