<svg id="Group_2214" data-name="Group 2214" xmlns="http://www.w3.org/2000/svg"
  xmlns:xlink="http://www.w3.org/1999/xlink" width="250" height="250" viewBox="0 0 250 250">
  <defs>
    <clipPath id="clip-path">
      <rect id="Rectangle_1586" data-name="Rectangle 1586" width="250" height="250" fill="none" />
    </clipPath>
  </defs>
  <g id="Group_2213" data-name="Group 2213" clip-path="url(#clip-path)">
    <path id="Path_518" data-name="Path 518"
      d="M147.544,122.082V130.9H54.63a8.813,8.813,0,0,1,0-17.625h84.1a8.819,8.819,0,0,1,8.814,8.813"
      transform="translate(11.455 28.317)" fill="#335c85" />
    <path id="Path_519" data-name="Path 519"
      d="M147.544,122.082V130.9H54.63a8.813,8.813,0,0,1,0-17.625h84.1A8.819,8.819,0,0,1,147.544,122.082Z"
      transform="translate(11.455 28.317)" fill="none" stroke="#036" stroke-linecap="round" stroke-miterlimit="10"
      stroke-width="4" />
    <path id="Path_520" data-name="Path 520"
      d="M154.272,160.469H61.5a7.643,7.643,0,0,1-7.644-7.644V95.708A7.644,7.644,0,0,1,61.5,88.064h92.771a7.644,7.644,0,0,1,7.644,7.645v57.116a7.644,7.644,0,0,1-7.644,7.644"
      transform="translate(13.464 22.016)" fill="#f9f1c6" />
    <rect id="Rectangle_1584" data-name="Rectangle 1584" width="108.059" height="72.405" rx="6.115"
      transform="translate(67.322 110.079)" fill="none" stroke="#fcba19" stroke-linejoin="round" stroke-width="4" />
    <line id="Line_65" data-name="Line 65" x2="52.002" transform="translate(80.018 152.6)" fill="none" stroke="#fcba19"
      stroke-linecap="round" stroke-linejoin="round" stroke-width="4" />
    <rect id="Rectangle_1585" data-name="Rectangle 1585" width="108.06" height="11.894"
      transform="translate(67.321 128.997)" fill="#fcba19" />
    <path id="Path_521" data-name="Path 521"
      d="M134.007,172.22v3.25a14.4,14.4,0,0,0,14.388,14.4h25.587v15.037a8.81,8.81,0,0,1-8.812,8.812H54.632a8.81,8.81,0,0,1-8.812-8.812V120.32a8.81,8.81,0,0,0,8.813,8.813H165.169a8.818,8.818,0,0,1,8.813,8.812v19.888H148.394a14.39,14.39,0,0,0-14.388,14.387"
      transform="translate(11.455 30.08)" fill="#8099b3" />
    <path id="Path_522" data-name="Path 522"
      d="M134.007,172.22v3.25a14.4,14.4,0,0,0,14.388,14.4h25.587v15.037a8.81,8.81,0,0,1-8.812,8.812H54.632a8.81,8.81,0,0,1-8.812-8.812V120.32a8.81,8.81,0,0,0,8.813,8.813H165.169a8.818,8.818,0,0,1,8.813,8.812v19.888H148.394A14.39,14.39,0,0,0,134.007,172.22Z"
      transform="translate(11.455 30.08)" fill="none" stroke="#036" stroke-miterlimit="10" stroke-width="4" />
    <path id="Path_523" data-name="Path 523"
      d="M163.63,150.33v32.038H130.756a14.4,14.4,0,0,1-14.388-14.4v-3.25a14.39,14.39,0,0,1,14.388-14.387Z"
      transform="translate(29.092 37.583)" fill="#8099b3" />
    <path id="Path_524" data-name="Path 524"
      d="M163.63,150.33v32.038H130.756a14.4,14.4,0,0,1-14.388-14.4v-3.25a14.39,14.39,0,0,1,14.388-14.387Z"
      transform="translate(29.092 37.583)" fill="none" stroke="#036" stroke-linejoin="round" stroke-width="4" />
    <circle id="Ellipse_63" data-name="Ellipse 63" cx="5.166" cy="5.166" r="5.166"
      transform="translate(155.788 198.756)" fill="none" stroke="#036" stroke-miterlimit="10" stroke-width="4" />
    <path id="Path_525" data-name="Path 525"
      d="M123.628,60.639a19.69,19.69,0,1,1-19.69-19.69,19.69,19.69,0,0,1,19.69,19.69"
      transform="translate(21.062 10.237)" fill="#dff0d8" />
    <circle id="Ellipse_64" data-name="Ellipse 64" cx="19.69" cy="19.69" r="19.69" transform="translate(105.31 51.187)"
      fill="none" stroke="#2d4821" stroke-miterlimit="10" stroke-width="4" />
    <path id="Path_527" data-name="Path 527" d="M92.811,59.264l7.079,7.079L112.464,51.49"
      transform="translate(23.203 12.873)" fill="none" stroke="#2d4821" stroke-linecap="round" stroke-linejoin="round"
      stroke-width="4" />
  </g>
</svg>