<svg id="Layer_1" data-name="Layer 1" xmlns="http://www.w3.org/2000/svg" viewBox="0 0 101.05 113.41">
  <defs>
    <style>
      .cls-1 {
        fill: #8099b3;
      }

      .cls-2 {
        fill: #036;
      }

      .cls-3 {
        fill: #f9f1c6;
      }

      .cls-4 {
        fill: #fcba19;
      }
    </style>
  </defs>
  <path class="cls-1"
    d="M77.72,34.2V82.48a28.94,28.94,0,0,1-57.88,0V48.37a2.62,2.62,0,0,1,2.62-2.62h1.18a7.78,7.78,0,0,1,7.78,7.78v-31a5.79,5.79,0,0,1,11.58,0V16.76a5.78,5.78,0,0,1,9.87-4.09,5.72,5.72,0,0,1,1.7,4.09v5.77a5.79,5.79,0,0,1,11.58,0V34.2a5.79,5.79,0,1,1,11.57,0Z" />
  <path class="cls-2"
    d="M31.42,55.53a2,2,0,0,1-2-2v-31a7.79,7.79,0,1,1,15.57,0,2,2,0,1,1-4,0,3.79,3.79,0,1,0-7.57,0v31A2,2,0,0,1,31.42,55.53Z" />
  <path class="cls-2"
    d="M77.72,70.62a2,2,0,0,1-2-2V34.19a3.79,3.79,0,0,0-7.58,0,2,2,0,0,1-4,0,7.79,7.79,0,0,1,15.58,0V68.62A2,2,0,0,1,77.72,70.62Z" />
  <path class="cls-2"
    d="M66.14,62.34a2,2,0,0,1-2-2V22.53a3.79,3.79,0,1,0-7.57,0,2,2,0,0,1-4,0,7.79,7.79,0,1,1,15.57,0V60.34A2,2,0,0,1,66.14,62.34Z" />
  <path class="cls-2"
    d="M54.57,59a2,2,0,0,1-2-2V16.76a3.79,3.79,0,1,0-7.58,0V57a2,2,0,0,1-4,0V16.76a7.79,7.79,0,1,1,15.58,0V57A2,2,0,0,1,54.57,59Z" />
  <path class="cls-2"
    d="M48.78,113.41A31,31,0,0,1,17.84,82.47V62.68a2,2,0,0,1,4,0V82.47a26.94,26.94,0,0,0,53.88,0V62.68a2,2,0,0,1,4,0V82.47A31,31,0,0,1,48.78,113.41Z" />
  <rect class="cls-3" x="2" y="2" width="97.05" height="65.03" rx="6.87" />
  <path class="cls-4"
    d="M92.18,69H8.87A8.88,8.88,0,0,1,0,60.16V8.87A8.88,8.88,0,0,1,8.87,0H92.18a8.88,8.88,0,0,1,8.87,8.87V60.16A8.88,8.88,0,0,1,92.18,69ZM8.87,4A4.87,4.87,0,0,0,4,8.87V60.16A4.88,4.88,0,0,0,8.87,65H92.18a4.88,4.88,0,0,0,4.87-4.87V8.87A4.87,4.87,0,0,0,92.18,4Z" />
  <path class="cls-4" d="M60.11,42.19H13.4a2,2,0,1,1,0-4H60.11a2,2,0,0,1,0,4Z" />
  <rect class="cls-4" x="2" y="18.99" width="97.05" height="10.68" />
  <path class="cls-2"
    d="M48.78,89a2,2,0,0,1-2-2A15.38,15.38,0,0,0,31.42,71.68a2,2,0,0,1-2-2V53.53a5.78,5.78,0,0,0-5.78-5.78H22.46a.62.62,0,0,0-.62.62V78.19a2,2,0,0,1-4,0V48.37a4.62,4.62,0,0,1,4.62-4.62h1.18a9.79,9.79,0,0,1,9.78,9.77V67.78A19.39,19.39,0,0,1,50.78,87,2,2,0,0,1,48.78,89Z" />
  <path class="cls-1"
    d="M48.78,87A17.36,17.36,0,0,0,31.42,69.68V53.53h0a7.77,7.77,0,0,0-7.78-7.77H22.46a2.62,2.62,0,0,0-2.62,2.62V78.19" />
  <path class="cls-2"
    d="M48.78,89a2,2,0,0,1-2-2A15.38,15.38,0,0,0,31.42,71.68a2,2,0,0,1-2-2V53.53a5.78,5.78,0,0,0-5.78-5.78H22.46a.62.62,0,0,0-.62.62V78.19a2,2,0,0,1-4,0V48.37a4.62,4.62,0,0,1,4.62-4.62h1.18a9.79,9.79,0,0,1,9.78,9.77V67.78A19.39,19.39,0,0,1,50.78,87,2,2,0,0,1,48.78,89Z" />
  <path class="cls-2"
    d="M78.23,36.72a4.51,4.51,0,0,0-4.5,4.5v2.85h2.34V41.14a2.14,2.14,0,0,1,4.27,0v2.93h2.39V41.22A4.51,4.51,0,0,0,78.23,36.72Z" />
  <path class="cls-2"
    d="M85.71,43.61h-15a1.09,1.09,0,0,0-1.1,1.09V55.31a1.09,1.09,0,0,0,1.1,1.09h15a1.09,1.09,0,0,0,1.09-1.09V44.7A1.09,1.09,0,0,0,85.71,43.61ZM79,50.9v2a.34.34,0,0,1-.34.33h-1a.33.33,0,0,1-.33-.33v-2a2.12,2.12,0,1,1,1.66,0Z" />
</svg>