<svg id="Layer_1" data-name="Layer 1" xmlns="http://www.w3.org/2000/svg" viewBox="0 0 90.45 61.92">
  <defs>
    <style>
      .cls-1 {
        fill: #f9f1c6;
      }

      .cls-2 {
        fill: #fcba19;
      }
    </style>
  </defs>
  <rect class="cls-1" x="2" y="2" width="86.45" height="57.92" rx="6.12" />
  <path class="cls-2"
    d="M82.33,61.92H8.12A8.12,8.12,0,0,1,0,53.81V8.12A8.13,8.13,0,0,1,8.11,0H82.33a8.13,8.13,0,0,1,8.12,8.12V53.81A8.12,8.12,0,0,1,82.33,61.92ZM8.11,4A4.13,4.13,0,0,0,4,8.12V53.81a4.12,4.12,0,0,0,4.12,4.11H82.33a4.12,4.12,0,0,0,4.12-4.11V8.12A4.13,4.13,0,0,0,82.33,4H8.11Z" />
  <path class="cls-2" d="M53.76,38H12.16a2,2,0,0,1,0-4h41.6a2,2,0,0,1,0,4Z" />
  <rect class="cls-2" x="2" y="17.13" width="86.45" height="9.52" />
</svg>