<svg id="Layer_1" data-name="Layer 1" xmlns="http://www.w3.org/2000/svg" viewBox="0 0 200 200">
  <defs>
    <style>
      .cls-1 {
        fill: none;
      }
    </style>
  </defs>
  <rect class="cls-1" width="200" height="200" />
  <path
    d="M156.8,158.13H43.2a11.07,11.07,0,0,1-11.06-11.06V60.14h4v86.93a7.07,7.07,0,0,0,7.06,7.06H156.8a7.07,7.07,0,0,0,7.06-7.06V131.61h4v15.46A11.07,11.07,0,0,1,156.8,158.13Z" />
  <path d="M167.86,98.69h-4V78.25a7.07,7.07,0,0,0-7.06-7.06H138.69v-4H156.8a11.08,11.08,0,0,1,11.06,11.06Z" />
  <path
    d="M140.69,71.19H43.2a11.06,11.06,0,1,1,0-22.11H61.54a2,2,0,1,1,0,4H43.2a7.06,7.06,0,1,0,0,14.11h93.49v-7a7.07,7.07,0,0,0-7.06-7.06H111.54a2,2,0,0,1,0-4h18.09a11.07,11.07,0,0,1,11.06,11.06Z" />
  <path
    d="M173.36,133.61H141.25a18.46,18.46,0,1,1,0-36.92h32.11a2,2,0,0,1,2,2v32.92A2,2,0,0,1,173.36,133.61Zm-32.11-32.92a14.46,14.46,0,1,0,0,28.92h30.11V100.69Z" />
  <path
    d="M140.7,122.45a7.31,7.31,0,1,1,7.31-7.31A7.31,7.31,0,0,1,140.7,122.45Zm0-10.62a3.31,3.31,0,1,0,3.31,3.31A3.31,3.31,0,0,0,140.7,111.83Z" />
  <path d="M86.41,54.53a2,2,0,0,1-2-2V38.29a2,2,0,1,1,4,0V52.53A2,2,0,0,1,86.41,54.53Z" />
  <path
    d="M78.84,57.9a2,2,0,0,1-1.42-.59l-8.8-8.8a2,2,0,1,1,2.83-2.83l8.8,8.81a2,2,0,0,1,0,2.82A2,2,0,0,1,78.84,57.9Z" />
  <path d="M94,57.9a2,2,0,0,1-1.41-.59,2,2,0,0,1,0-2.82l8.8-8.81a2,2,0,0,1,2.83,2.83l-8.81,8.8A2,2,0,0,1,94,57.9Z" />
</svg>