<svg id="Layer_1" data-name="Layer 1" xmlns="http://www.w3.org/2000/svg" viewBox="0 0 380.11 338.94">
  <defs>
    <style>
      .cls-1 {
        fill: #42803e;
      }
    </style>
  </defs>
  <path class="cls-1"
    d="M240.38,195.41c2-3.13,3.88-6.1,5.81-9,14.59-22.19,31.46-42.31,53.15-58,10.41-7.52,21.59-13.67,33.94-17.28,6.26-1.83,12.83-2.63,19.26-3.89.28-.06.61,0,.87-.08s.78-.66,1.17-.66c4.59,0,9.19-.28,13.76,0a123,123,0,0,1,13.36,1.89,92.81,92.81,0,0,1,24.36,7.77c14.42,7.11,25.26,17.61,30.53,33.08a56.17,56.17,0,0,1,2.3,27.51c-3.62,22.19-15.06,39.36-33.22,52.3-2.63,1.87-2.59,1.8-4.58-.55a1.65,1.65,0,0,1,0-2.48,81.55,81.55,0,0,0,14.24-26.82c3.43-11.24,4.62-22.53.6-33.9-3.57-10.06-10.92-16.08-20.86-19.14-11-3.4-22.32-3.56-33.56-1.62s-21.17,7.23-30.12,14.24C315.14,171.49,303,187.69,292.12,205a400.13,400.13,0,0,0-21.87,40.45,36.38,36.38,0,0,1-2,4.17c-2.08,3.21-.44,6.24.17,9.37,1.74,9,3.8,17.9,5,26.94,1.46,11,2.58,22,3.11,33,.62,12.69.46,25.41.57,38.12,0,5.25.15,10.51-.21,15.74-.45,6.47-1.19,12.92-2.1,19.34a92.84,92.84,0,0,1-7.51,26.5c-4.41,9.45-10.52,17.46-19.93,22.44a34.32,34.32,0,0,1-23,3.58c-14.57-2.76-24.48-11.69-31.64-24.14-5.11-8.88-7.68-18.56-9-28.68-1.48-11.41-.63-22.7.87-34,.88-6.65,1.71-13.32,2.94-19.91,1.42-7.6,3.13-15.16,4.94-22.68,1.71-7.15,3.56-14.29,5.64-21.35,2.32-7.91,4.7-15.81,7.52-23.55,3.77-10.37,8-20.57,12-30.88a3.64,3.64,0,0,0-.22-2.84c-8.68-13.87-18.32-27-30.2-38.37a132.12,132.12,0,0,0-50.49-30.64,49.06,49.06,0,0,0-28.76-.94c-9,2.48-15.2,8.46-19.15,16.84a60.29,60.29,0,0,0-5.42,21.09,124.42,124.42,0,0,0-.65,17.67c.6,10,3.54,19.26,11.16,26.44a40.47,40.47,0,0,0,17.77,9.43,10.26,10.26,0,0,0,2.36.57c2.66,0,2.35,1.91,2.32,3.53,0,1.85-1.66,1.68-2.81,1.8a45.68,45.68,0,0,1-46.93-27.44,85.49,85.49,0,0,1-7.08-35.06c0-6.34,0-12.78,1.08-19,3.59-20.37,13.9-36.11,33.07-45.23,11.44-5.44,23.54-7.38,36.14-7.05,18.78.49,36.06,6.33,52.61,14.66a156.21,156.21,0,0,1,33.28,22.93,154.48,154.48,0,0,1,23.71,26.54C239.63,194.69,239.91,194.91,240.38,195.41Zm7.4,106.92-.68-.09a19.24,19.24,0,0,0-1.07,2.31c-4,12.88-8.17,25.7-11.85,38.66-2.34,8.28-4.21,16.71-5.81,25.16a121.08,121.08,0,0,0-2.08,27.75,44.77,44.77,0,0,0,3.54,16.76c2.64,5.93,7.44,7.83,13.42,5.34a20.81,20.81,0,0,0,10.88-10.84c3.93-8.26,5-17.18,5-26.09,0-9.79-.92-19.59-1.68-29.36a129.7,129.7,0,0,0-1.95-13.12q-1.9-10.43-4.09-20.81C250.31,312.75,249,307.55,247.78,302.33Z"
    transform="translate(-59.54 -106.33)" />
  <path class="cls-1"
    d="M371,246.77c-5,.82-9.68,1.26-14.16,2.36-8.52,2.09-13.56,6-15,16-.5,3.56-.75,7.15-1.28,10.79-.22-1.93-.33-3.88-.71-5.78-.61-3.1-1.24-6.21-2.14-9.23-2.09-7-7.42-10.34-14.16-11.83a90.23,90.23,0,0,1-10.27-2.5,27.9,27.9,0,0,0,4.29,0,69.24,69.24,0,0,0,10.58-2.09c6.09-2,8.86-7,10.35-12.85.92-3.62,1.47-7.34,2.4-11.11.1,1.29.21,2.57.31,3.86.5,6.07,1,12.1,5.89,16.64a17.54,17.54,0,0,0,9.82,4.68c4,.54,8.08.65,12.12.94Z"
    transform="translate(-59.54 -106.33)" />
</svg>