<svg xmlns="http://www.w3.org/2000/svg" width="139.449" height="104.213" viewBox="0 0 139.449 104.213">
  <path id="Path_511" data-name="Path 511" d="M134.007,172.22v3.25a14.4,14.4,0,0,0,14.387,14.4h25.588v15.038a8.81,8.81,0,0,1-8.812,8.812H54.632a8.81,8.81,0,0,1-8.812-8.812V120.32a8.81,8.81,0,0,0,8.813,8.813H165.169a8.818,8.818,0,0,1,8.813,8.813v19.887H148.394a14.39,14.39,0,0,0-14.387,14.387" transform="translate(-43.819 -111.507)" fill="#8099b3"/>
  <path id="Path_512" data-name="Path 512" d="M134.007,172.22v3.25a14.4,14.4,0,0,0,14.387,14.4h25.588v15.038a8.81,8.81,0,0,1-8.812,8.812H54.632a8.81,8.81,0,0,1-8.812-8.812V120.32a8.81,8.81,0,0,0,8.813,8.813H165.169a8.818,8.818,0,0,1,8.813,8.813v19.887H148.394A14.39,14.39,0,0,0,134.007,172.22Z" transform="translate(-43.819 -111.507)" fill="none" stroke="#036" stroke-miterlimit="10" stroke-width="4"/>
  <path id="Path_515" data-name="Path 515" d="M163.63,150.33v32.038H130.756a14.4,14.4,0,0,1-14.388-14.4v-3.25a14.39,14.39,0,0,1,14.388-14.387Z" transform="translate(-26.182 -104.005)" fill="#8099b3"/>
  <path id="Path_516" data-name="Path 516" d="M163.63,150.33v32.038H130.756a14.4,14.4,0,0,1-14.388-14.4v-3.25a14.39,14.39,0,0,1,14.388-14.387Z" transform="translate(-26.182 -104.005)" fill="none" stroke="#036" stroke-linejoin="round" stroke-width="4"/>
  <circle id="Ellipse_62" data-name="Ellipse 62" cx="5.166" cy="5.166" r="5.166" transform="translate(100.514 57.168)" fill="none" stroke="#036" stroke-miterlimit="10" stroke-width="4"/>
</svg>
