<svg id="Layer_1" data-name="Layer 1" xmlns="http://www.w3.org/2000/svg" viewBox="0 0 110.9 84.67">
  <defs>
    <style>
      .cls-1 {
        fill: #8099b3;
      }

      .cls-2 {
        fill: #036;
      }

      .cls-3 {
        fill: #335c85;
      }
    </style>
  </defs>
  <g id="Path_536" data-name="Path 536">
    <path class="cls-1"
      d="M71.6,49.92v2.56A11.37,11.37,0,0,0,83,63.85h20.2V75.71a7,7,0,0,1-7,7H9a7,7,0,0,1-6.95-7H2V9a7,7,0,0,0,7,7H96.19a7,7,0,0,1,7,7V38.56H83A11.36,11.36,0,0,0,71.6,49.92" />
  </g>
  <g id="Path_537" data-name="Path 537">
    <path class="cls-2"
      d="M9,84.67a8.95,8.95,0,0,1-8.95-9V9H0A2,2,0,0,1,2,7H2A2,2,0,0,1,4,9,5,5,0,0,0,9,13.91H96.19a9,9,0,0,1,9,9V38.56a2,2,0,0,1-2,2H83a9.37,9.37,0,0,0-9.35,9.36v2.56A9.39,9.39,0,0,0,83,61.85h20.19a2,2,0,0,1,2,2V75.71a9,9,0,0,1-9,9H9ZM4,16.42V75.71a5,5,0,0,0,4.95,5H96.19a5,5,0,0,0,5-5V65.85H83A13.39,13.39,0,0,1,69.6,52.48V49.92h0A13.38,13.38,0,0,1,83,36.56h18.2V22.87a5,5,0,0,0-5-5H9A8.9,8.9,0,0,1,4,16.42Z" />
  </g>
  <g id="Path_538" data-name="Path 538">
    <path class="cls-3" d="M82.28,9v7H9A7,7,0,0,1,9,2H75.33a7,7,0,0,1,7,7" />
  </g>
  <g id="Path_539" data-name="Path 539">
    <path class="cls-2"
      d="M84.28,17.91H9A9,9,0,1,1,9,0H75.33a9,9,0,0,1,9,9ZM9,4a5,5,0,1,0,0,9.91H80.28V9a5,5,0,0,0-5-5Z" />
  </g>
  <g id="Path_540" data-name="Path 540">
    <path class="cls-1" d="M108.9,38.56V63.85H83A11.37,11.37,0,0,1,71.6,52.48V49.91A11.35,11.35,0,0,1,83,38.56Z" />
  </g>
  <g id="Path_541" data-name="Path 541">
    <path class="cls-2"
      d="M108.9,65.85H83A13.39,13.39,0,0,1,69.6,52.48V49.92A13.37,13.37,0,0,1,83,36.56h26a2,2,0,0,1,2,2V63.85A2,2,0,0,1,108.9,65.85ZM83,40.56a9.37,9.37,0,0,0-9.35,9.36v2.56A9.39,9.39,0,0,0,83,61.85H106.9V40.56Z" />
  </g>
  <g id="Ellipse_65" data-name="Ellipse 65">
    <path class="cls-2"
      d="M83.83,57.27a6.28,6.28,0,0,1-.75,0,6,6,0,0,1-4-2.29,6.07,6.07,0,0,1,5.53-9.77,6.07,6.07,0,0,1,5.29,6.77A6.09,6.09,0,0,1,83.83,57.27Zm0-8.15a2.07,2.07,0,0,0-2.06,1.82,2.08,2.08,0,0,0,1.8,2.32,2.09,2.09,0,0,0,2.32-1.81,2.06,2.06,0,0,0-.43-1.53,2,2,0,0,0-1.38-.78A1.06,1.06,0,0,0,83.83,49.12Z" />
  </g>
</svg>