<svg xmlns="http://www.w3.org/2000/svg" xmlns:xlink="http://www.w3.org/1999/xlink" width="138" height="154"
  viewBox="0 0 138 154">
  <defs>
    <clipPath id="clip-path">
      <rect id="Rectangle_2877" data-name="Rectangle 2877" width="138" height="154" transform="translate(31 23)"
        fill="none" />
    </clipPath>
  </defs>
  <g id="Group_5139" data-name="Group 5139" transform="translate(-31 -23)">
    <g id="Group_5138" data-name="Group 5138" clip-path="url(#clip-path)">
      <path id="Path_2759" data-name="Path 2759"
        d="M158.363,174.78H41.638a8.494,8.494,0,0,1-8.494-8.494V83.725a8.494,8.494,0,0,1,8.494-8.494H158.363a8.494,8.494,0,0,1,8.494,8.494v82.561a8.494,8.494,0,0,1-8.494,8.494"
        fill="#8099b3" />
      <path id="Path_2760" data-name="Path 2760"
        d="M158.363,176.78H41.637a10.506,10.506,0,0,1-10.494-10.493V83.726A10.506,10.506,0,0,1,41.637,73.232H158.363a10.506,10.506,0,0,1,10.493,10.494v82.561a10.5,10.5,0,0,1-10.493,10.493M41.637,77.232a6.5,6.5,0,0,0-6.494,6.494v82.561a6.5,6.5,0,0,0,6.494,6.493H158.363a6.5,6.5,0,0,0,6.493-6.493V83.726a6.5,6.5,0,0,0-6.493-6.494Z"
        fill="#036" />
      <path id="Path_2761" data-name="Path 2761"
        d="M131.426,56.64V75.234H120V56.044a20.182,20.182,0,0,0-40.364,0v19.19H68.574V56.64a31.426,31.426,0,0,1,62.852,0"
        fill="#335c85" />
      <path id="Path_2762" data-name="Path 2762"
        d="M131.426,77.234H120a2,2,0,0,1-2-2V56.045a18.182,18.182,0,1,0-36.365,0V75.234a2,2,0,0,1-2,2H68.574a2,2,0,0,1-2-2V56.64a33.426,33.426,0,0,1,66.852,0V75.234a2,2,0,0,1-2,2m-9.425-4h7.425V56.64a29.426,29.426,0,0,0-58.852,0V73.234h7.062V56.045a22.182,22.182,0,1,1,44.365,0Z"
        fill="#036" />
      <path id="Path_2763" data-name="Path 2763" d="M100,167.6a2,2,0,0,1-2-2V84.915a2,2,0,0,1,4,0V165.6a2,2,0,0,1-2,2"
        fill="#fcba19" />
      <path id="Path_2764" data-name="Path 2764"
        d="M77.017,124.237q-.007-.308-.008-.618a22.986,22.986,0,0,1,7.313-16.78A2,2,0,1,0,81.6,103.91a27,27,0,0,0-8.588,19.709c0,.242,0,.483.01.726.005.168.409,16.9-4.312,27.73a2,2,0,1,0,3.666,1.6c5.075-11.644,4.665-28.717,4.644-29.436"
        fill="#fcba19" />
      <path id="Path_2765" data-name="Path 2765"
        d="M89.738,123.619v6.437a2,2,0,0,0,4,0v-6.437a6.186,6.186,0,0,1,6.181-6.18c.028,0,.053,0,.08,0v-4c-.027,0-.053,0-.08,0a10.191,10.191,0,0,0-10.181,10.18"
        fill="#fcba19" />
      <path id="Path_2766" data-name="Path 2766"
        d="M69.051,123.619A30.9,30.9,0,0,1,99.918,92.752l.082,0v-4l-.082,0a34.909,34.909,0,0,0-34.867,34.879c0,.131.047,13.249-2.329,20.147a2,2,0,1,0,3.781,1.3c2.6-7.544,2.551-20.907,2.548-21.461"
        fill="#fcba19" />
      <path id="Path_2767" data-name="Path 2767"
        d="M89.962,98.613a2,2,0,0,0,1.48,3.716,22.791,22.791,0,0,1,8.476-1.619l.082,0v-4l-.082,0a26.765,26.765,0,0,0-9.956,1.9"
        fill="#fcba19" />
      <path id="Path_2768" data-name="Path 2768" d="M100,162c-.394,1.29-.646,2.051-.66,2.093a2,2,0,0,0,.66,2.2Z"
        fill="#fcba19" />
      <path id="Path_2769" data-name="Path 2769"
        d="M99.918,109.155c.028,0,.054,0,.082,0v-4c-.028,0-.054,0-.082,0a18.947,18.947,0,0,0-18.464,18.463c0,9.235-.639,21.412-5.621,33.7a2,2,0,1,0,3.707,1.5c5.242-12.93,5.914-25.605,5.914-35.2a14.843,14.843,0,0,1,14.464-14.463"
        fill="#fcba19" />
      <path id="Path_2770" data-name="Path 2770"
        d="M95.539,156.768a2,2,0,0,0-2.5,1.32,60.084,60.084,0,0,1-2.075,5.833,2,2,0,0,0,3.657,1.619,61.869,61.869,0,0,0,2.24-6.271,2,2,0,0,0-1.32-2.5"
        fill="#fcba19" />
      <path id="Path_2771" data-name="Path 2771"
        d="M100,121.315h0a2,2,0,0,0-2,2,122.209,122.209,0,0,1-2.8,26.537,2,2,0,1,0,3.907.861c.33-1.5.621-3.012.895-4.532Z"
        fill="#fcba19" />
      <path id="Path_2772" data-name="Path 2772"
        d="M91.2,136.717a2.006,2.006,0,0,0-2.214,1.762A91.212,91.212,0,0,1,83.367,161a2,2,0,1,0,3.743,1.4,95.173,95.173,0,0,0,5.851-23.478,2,2,0,0,0-1.761-2.212"
        fill="#fcba19" />
      <path id="Path_2773" data-name="Path 2773"
        d="M130.928,113.2c-.37-.25-5.43-3.43-15.5-.2-10.18,3.27-15.16-10.66-15.43-11.45V90.43h.07a32.293,32.293,0,0,1,30.86,22.77"
        fill="#fcba19" />
      <path id="Path_2774" data-name="Path 2774"
        d="M112.361,115.506c-7.563,0-12.427-7.951-14.256-13.31A2,2,0,0,1,98,101.55V90.43a2,2,0,0,1,2-2,34.127,34.127,0,0,1,32.841,24.182,2,2,0,0,1-3.029,2.246c-.066-.042-4.568-2.9-13.772.046a11.976,11.976,0,0,1-3.677.6M102,101.2c.731,1.969,5.021,12.4,12.818,9.894a25.9,25.9,0,0,1,12.706-1.205A30.084,30.084,0,0,0,102,92.49Z"
        fill="#fcba19" />
      <path id="Path_2775" data-name="Path 2775"
        d="M137.9,125.52a7.038,7.038,0,0,1-7.04,7.04c-4.15,13.05-10.28,29.97-30.86,29.97V101.55c.27.79,5.25,14.72,15.43,11.45,10.07-3.23,15.13-.05,15.5.2a31.156,31.156,0,0,1,1.18,5.39,7.046,7.046,0,0,1,5.79,6.93"
        fill="#f9f1c6" />
      <path id="Path_2776" data-name="Path 2776"
        d="M100,164.53a2,2,0,0,1-2-2V101.55a2,2,0,0,1,3.893-.646c.18.528,4.509,12.9,12.925,10.192,10.923-3.5,16.618.033,17.231.447a2,2,0,0,1,.788,1.055,33,33,0,0,1,1.058,4.4,9.044,9.044,0,0,1-1.534,17.435C128.572,146.257,121.985,164.53,100,164.53m2-54.981v50.923c16.779-.995,22.527-14.6,26.954-28.518a2,2,0,0,1,1.906-1.394,5.041,5.041,0,0,0,.9-10,2,2,0,0,1-1.63-1.711,29.546,29.546,0,0,0-.874-4.278c-1.466-.658-5.823-2.036-13.213.334-6.145,1.976-10.87-1.195-14.04-5.355"
        fill="#fcba19" />
      <path id="Path_2777" data-name="Path 2777" d="M130.948,115.21a2.06,2.06,0,0,1-1.435-.6,2.008,2.008,0,1,1,1.435.6"
        fill="#fcba19" />
      <path id="Path_2778" data-name="Path 2778"
        d="M100,103.55a2,2,0,0,1-1.8-1.124,2.142,2.142,0,0,1-.212-.906A2.007,2.007,0,1,1,100,103.55" fill="#fcba19" />
      <path id="Path_2779" data-name="Path 2779" d="M117.786,125.517a4.2,4.2,0,1,1-4.2-4.2,4.2,4.2,0,0,1,4.2,4.2"
        fill="#fcba19" />
      <path id="Path_2780" data-name="Path 2780"
        d="M100,151.823a2,2,0,0,1,0-4c5.1,0,8.645-2.523,8.645-4.788a2,2,0,0,1,4,0c0,4.928-5.554,8.788-12.645,8.788"
        fill="#fcba19" />
    </g>
  </g>
</svg>