<svg id="Group_2284" data-name="Group 2284" xmlns="http://www.w3.org/2000/svg"
  xmlns:xlink="http://www.w3.org/1999/xlink" width="250" height="250" viewBox="0 0 250 250">
  <defs>
    <clipPath id="clip-path">
      <rect id="Rectangle_1624" data-name="Rectangle 1624" width="250" height="250" fill="none" />
    </clipPath>
  </defs>
  <g id="Group_2283" data-name="Group 2283" clip-path="url(#clip-path)">
    <path id="Path_584" data-name="Path 584"
      d="M189.942,147.681H16.307A14.307,14.307,0,0,1,2,133.375V26.474A14.308,14.308,0,0,1,16.308,12.166H189.942A14.307,14.307,0,0,1,204.25,26.474v106.9a14.307,14.307,0,0,1-14.307,14.306"
      transform="translate(21.875 21.742)" fill="#f9f1c6" />
    <path id="Rectangle_1622" data-name="Rectangle 1622"
      d="M13.865,0h174.52A13.865,13.865,0,0,1,202.25,13.865V121.65a13.866,13.866,0,0,1-13.866,13.866H13.865A13.865,13.865,0,0,1,0,121.652V13.865A13.865,13.865,0,0,1,13.865,0Z"
      transform="translate(23.875 33.908)" fill="none" stroke="#fcba19" stroke-linejoin="round" stroke-width="4" />
    <line id="Line_73" data-name="Line 73" x2="97.331" transform="translate(47.639 113.491)" fill="none"
      stroke="#fcba19" stroke-linecap="round" stroke-linejoin="round" stroke-width="4" />
    <rect id="Rectangle_1623" data-name="Rectangle 1623" width="202.25" height="22.261"
      transform="translate(23.875 69.315)" fill="#fcba19" />
    <path id="Path_585" data-name="Path 585" d="M101.193,108.832a38.6,38.6,0,1,0,38.6,38.6,38.6,38.6,0,0,0-38.6-38.6"
      transform="translate(23.807 24.824)" fill="#f2dede" />
    <path id="Path_586" data-name="Path 586"
      d="M101.193,108.832a38.6,38.6,0,1,0,38.6,38.6A38.6,38.6,0,0,0,101.193,108.832Z"
      transform="translate(23.807 24.824)" fill="none" stroke="#a12622" stroke-miterlimit="10" stroke-width="4" />
    <path id="Path_587" data-name="Path 587"
      d="M111.137,162.805l-10.483-10.483L90.471,162.5a4.133,4.133,0,0,1-5.845-5.845l10.183-10.183L84.928,136.6a4.133,4.133,0,0,1,5.845-5.845l9.881,9.881,10.183-10.183a4.133,4.133,0,0,1,5.845,5.845L106.5,146.478l10.483,10.483a4.133,4.133,0,1,1-5.845,5.845"
      transform="translate(24.471 25.475)" fill="#a12622" />
  </g>
</svg>