<svg id="Layer_1" data-name="Layer 1" xmlns="http://www.w3.org/2000/svg" viewBox="0 0 200 200">
  <defs>
    <style>
      .cls-1,
      .cls-4,
      .cls-5 {
        fill: none;
      }

      .cls-2 {
        fill: #313132;
      }

      .cls-3 {
        fill: #036;
      }

      .cls-4,
      .cls-5 {
        stroke: #036;
        stroke-linejoin: round;
        stroke-width: 4px;
      }

      .cls-4 {
        stroke-linecap: round;
      }
    </style>
  </defs>
  <rect class="cls-1" width="200" height="200" />
  <path class="cls-2"
    d="M130.79,15.58H68.65a15,15,0,0,0-15,15V169.42a15,15,0,0,0,15,15H90.93c-4.54-4-9.4-11.5-10.73-25.56H66a6.32,6.32,0,0,1-6.32-6.33V37.14A6.32,6.32,0,0,1,66,30.82h67.46a6.32,6.32,0,0,1,6.32,6.32V152.53a6.32,6.32,0,0,1-6.32,6.33H119.24c-1.33,14.06-6.19,21.57-10.73,25.56h22.28a15,15,0,0,0,15-15V30.58A15,15,0,0,0,130.79,15.58Zm-19.37,9.19H89.31a1.89,1.89,0,0,1,0-3.77h22.11a1.89,1.89,0,0,1,0,3.77Z" />
  <path class="cls-3"
    d="M107.65,160.5H91.79a2,2,0,0,0-2.07,2v10.69a2,2,0,0,0,2.07,2h15.86a2,2,0,0,0,2.07-2V162.46A2,2,0,0,0,107.65,160.5ZM100.84,169v2.64a.46.46,0,0,1-.45.46H99.05a.46.46,0,0,1-.45-.46V169a2.88,2.88,0,1,1,2.24,0Z" />
  <path class="cls-3" d="M105.72,161.76h-3.37v-3.32a2.61,2.61,0,0,0-5.21,0v3.32H93.77v-3.32a6,6,0,0,1,12,0Z" />
  <path class="cls-3"
    d="M99.72,190.9l-.22,0c-.88-.1-21.67-2.79-21.67-40v-.83l.59-.59c.31-.31,8-7.78,21.3-7.78s21,7.47,21.31,7.78l.58.59v.83c0,37.19-20.79,39.88-21.67,40ZM81.83,151.8c.29,30.92,15.73,34.69,17.89,35.07,2.13-.37,17.6-4.12,17.89-35.07a29.28,29.28,0,0,0-35.78,0Z" />
  <g id="Group_1175" data-name="Group 1175">
    <line id="Line_5" data-name="Line 5" class="cls-4" x1="103.06" y1="55.93" x2="119.57" y2="55.93" />
    <line id="Line_6" data-name="Line 6" class="cls-4" x1="103.06" y1="64.15" x2="119.57" y2="64.15" />
    <line id="Line_7" data-name="Line 7" class="cls-4" x1="103.06" y1="72.37" x2="119.57" y2="72.37" />
    <g id="Group_1174" data-name="Group 1174">
      <circle id="Ellipse_21" data-name="Ellipse 21" class="cls-3" cx="88.23" cy="59.3" r="4.06" />
      <path id="Rectangle_41" data-name="Rectangle 41" class="cls-3"
        d="M88.23,64.86h0a6.34,6.34,0,0,1,6.34,6.34v.15a.92.92,0,0,1-.91.92H82.8a.92.92,0,0,1-.91-.92h0V71.2A6.34,6.34,0,0,1,88.23,64.86Z" />
    </g>
    <rect class="cls-5" x="73.47" y="46.47" width="53.91" height="35.36" rx="5.42" />
  </g>
  <g id="Group_1175-2" data-name="Group 1175">
    <line id="Line_5-2" data-name="Line 5" class="cls-4" x1="103.06" y1="101.48" x2="119.57" y2="101.48" />
    <line id="Line_6-2" data-name="Line 6" class="cls-4" x1="103.06" y1="109.7" x2="119.57" y2="109.7" />
    <line id="Line_7-2" data-name="Line 7" class="cls-4" x1="103.06" y1="117.93" x2="119.57" y2="117.93" />
    <g id="Group_1174-2" data-name="Group 1174">
      <circle id="Ellipse_21-2" data-name="Ellipse 21" class="cls-3" cx="88.23" cy="104.86" r="4.06" />
      <path id="Rectangle_41-2" data-name="Rectangle 41" class="cls-3"
        d="M88.23,110.41h0a6.34,6.34,0,0,1,6.34,6.35v.15a.91.91,0,0,1-.91.91H82.8a.91.91,0,0,1-.91-.91h0v-.15A6.34,6.34,0,0,1,88.23,110.41Z" />
    </g>
    <rect class="cls-5" x="73.47" y="92.02" width="53.91" height="35.36" rx="5.42" />
  </g>
</svg>