<svg width="50" height="50" viewBox="0 0 50 50" fill="none" xmlns="http://www.w3.org/2000/svg">
<rect y="-0.00012207" width="49.5157" height="50" rx="5" fill="#917952"/>
<path d="M23.3078 32.0999H26.2578V22.3999L30.2078 26.4499L32.3578 24.2999L24.7078 16.6999L17.1078 24.2999L19.2578 26.4499L23.3078 22.3999V32.0999ZM7.75781 40.4999C6.95781 40.4999 6.25781 40.1999 5.65781 39.5999C5.05781 38.9999 4.75781 38.2999 4.75781 37.4999V11.4999C4.75781 10.6999 5.05781 9.99988 5.65781 9.39988C6.25781 8.79988 6.95781 8.49988 7.75781 8.49988H41.7578C42.5578 8.49988 43.2578 8.79988 43.8578 9.39988C44.4578 9.99988 44.7578 10.6999 44.7578 11.4999V37.4999C44.7578 38.2999 44.4578 38.9999 43.8578 39.5999C43.2578 40.1999 42.5578 40.4999 41.7578 40.4999H7.75781ZM7.75781 37.4999H41.7578V11.4999H7.75781V37.4999ZM7.75781 37.4999V11.4999V37.4999Z" fill="black"/>
</svg>
