<svg class="svg-icon" style="width: 1em; height: 1em;vertical-align: middle;fill: currentColor;overflow: hidden;" viewBox="0 0 1024 1024" version="1.1" xmlns="http://www.w3.org/2000/svg"><path d="M770.725 349.605c6.089 61.577-16.069 105.22-66.483 130.933 39.582 9.472 69.188 26.896 88.809 52.273 19.621 25.373 27.237 61.577 22.836 108.603-2.369 24.022-7.866 45.166-16.492 63.436-8.626 18.27-19.539 33.326-32.735 45.166-13.196 11.841-29.602 21.74-49.227 29.688-19.621 7.953-40.178 13.787-61.659 17.506-21.485 3.719-46.098 6.257-73.84 7.612v129.405h-78.155V806.851c-27.064 0-47.703-0.168-61.913-0.509v127.887H363.72v-129.41c-6.089 0-15.224-0.086-27.405-0.255-12.182-0.168-21.485-0.255-27.91-0.255h-101.5l15.733-92.87h56.334c16.915 0 26.728-8.626 29.433-25.882V335.396c-4.397-23.008-19.452-34.508-45.166-34.508h-56.334v-83.23l107.589 0.509c21.653 0 38.064-0.168 49.227-0.509V89.771h78.155v125.35c27.742-0.678 48.381-1.014 61.913-1.014V89.771h78.155v127.887c26.728 2.369 50.409 6.175 71.048 11.418 20.639 5.243 39.755 12.855 57.348 22.835s31.548 23.176 41.87 39.582c10.312 16.411 16.487 35.782 18.515 58.112zM661.613 626.182c0-12.182-2.537-23.008-7.612-32.48-5.075-9.472-11.336-17.256-18.775-23.345-7.444-6.089-17.17-11.25-29.179-15.478-12.009-4.229-23.09-7.357-33.239-9.39-10.149-2.028-22.667-3.551-37.554-4.565-14.887-1.014-26.56-1.523-35.017-1.523-8.458 0-19.371 0.168-32.734 0.509-13.364 0.336-21.399 0.509-24.104 0.509v171.53c2.706 0 8.967 0.086 18.775 0.255 9.813 0.168 17.929 0.255 24.359 0.255s15.392-0.255 26.896-0.759c11.504-0.505 21.399-1.182 29.688-2.028 8.289-0.846 17.929-2.283 28.929-4.315 10.995-2.028 20.385-4.397 28.165-7.107 7.78-2.706 15.815-6.257 24.104-10.658 8.289-4.397 14.969-9.472 20.044-15.224s9.221-12.518 12.432-20.298c3.208-7.782 4.822-16.412 4.822-25.888z m-36.031-241.564c0-11.163-2.114-21.062-6.343-29.688-4.229-8.626-9.39-15.733-15.478-21.317-6.089-5.584-14.21-10.317-24.359-14.21-10.149-3.892-19.452-6.68-27.91-8.376-8.458-1.691-18.861-3.047-31.211-4.061-12.35-1.014-22.163-1.437-29.433-1.269-7.275 0.168-16.41 0.336-27.405 0.509-10.995 0.168-17.679 0.255-20.044 0.255v155.797c1.692 0 7.53 0.086 17.506 0.255 9.981 0.168 17.847 0.168 23.599 0 5.752-0.168 14.21-0.509 25.373-1.014 11.163-0.509 20.466-1.437 27.91-2.792 7.444-1.355 16.156-3.215 26.137-5.584 9.981-2.369 18.184-5.497 24.613-9.39 6.43-3.892 12.686-8.458 18.775-13.7 6.089-5.243 10.658-11.759 13.7-19.539s4.57-16.4 4.57-25.876z" fill="#FDA806" /></svg>