<svg id="Credential_offer" data-name="Credential offer" xmlns="http://www.w3.org/2000/svg" width="24" height="24" viewBox="0 0 24 24">
  <g id="Group_10358" data-name="Group 10358" transform="translate(2 2)">
    <path id="Path_9447" data-name="Path 9447" d="M16.177,2H2V21.8H21.8V8.524ZM19.82,19.82H3.98V3.98H14.9V8.96h4.663l.267.307V19.82Z" transform="translate(-2 -2)" fill="#313132"/>
    <path id="Path_9448" data-name="Path 9448" d="M16.2,11.57l-.01-.01a.534.534,0,0,0-.75.02l-2.55,2.68V7.87h0a.527.527,0,0,0-.53-.53h-.71a.534.534,0,0,0-.53.53v6.39L8.57,11.58h0a.537.537,0,0,0-.76,0l-.49.49h0a.525.525,0,0,0,0,.75l4.32,4.32h0a.525.525,0,0,0,.75,0l4.32-4.32h0a.525.525,0,0,0,0-.75l-.49-.49Z" transform="translate(-2.1 -2.106)" fill="#313132"/>
  </g>
  <rect id="Rectangle_4818" data-name="Rectangle 4818" width="24" height="24" fill="none"/>
</svg>
