<?xml version="1.0" encoding="utf-8"?>
<!-- Generator: Adobe Illustrator 24.2.0, SVG Export Plug-In . SVG Version: 6.00 Build 0)  -->
<svg version="1.1" xmlns="http://www.w3.org/2000/svg" xmlns:xlink="http://www.w3.org/1999/xlink" x="0px" y="0px"
	 viewBox="0 0 440.06 279.53" style="enable-background:new 0 0 440.06 279.53;" xml:space="preserve">
<style type="text/css">
	.st0{fill:#E31937;}
</style>
<g id="Layer_1">
	<g>
		<path class="st0" d="M143.91,97c-27.4,0-44.2,21.4-44.2,43c0,26,21.2,43,44.4,43c15.4,0,30-6.8,42.4-17.8v32.2
			c-13,7.8-30.8,12.6-44.6,12.6c-39.6,0-72.8-32.2-72.8-70c0-40,33.4-70,73-70c15.2,0,33,4.6,44.6,10.4V112
			C172.11,102.4,157.31,97,143.91,97z"/>
		<path class="st0" d="M270.69,210c-39.8,0-73.4-31-73.4-70c0-39.4,33.4-70,75.2-70c15.2,0,34,4,45.6,9.4v31.4
			c-13.2-7.6-30.2-13.8-45-13.8c-27.4,0-45.2,21.4-45.2,43c0,25.4,21,43.8,45.6,43.8c5.2,0,10.2-0.4,16.6-2.8v-25.2h-22.4v-26.6
			h51.2V200C304.29,206.6,287.89,210,270.69,210z"/>
		<path class="st0" d="M341.26,207.2V72.8h28.8v134.4H341.26z"/>
	</g>
</g>
<g id="Protection">
</g>
<g id="Guides">
</g>
</svg>
