<svg id="Group_10756" data-name="Group 10756" xmlns="http://www.w3.org/2000/svg" xmlns:xlink="http://www.w3.org/1999/xlink" width="200" height="200" viewBox="0 0 200 200">
  <defs>
    <clipPath id="clip-path">
      <rect id="Rectangle_6187" data-name="Rectangle 6187" width="200" height="200" fill="none"/>
    </clipPath>
  </defs>
  <g id="Group_10755" data-name="Group 10755" clip-path="url(#clip-path)">
    <path id="Path_9539" data-name="Path 9539" d="M110.972,73.774,36.2,86.511a9.539,9.539,0,0,1-11.006-7.8L17.941,36.131a9.54,9.54,0,0,1,7.8-11.006l74.772-12.737a9.539,9.539,0,0,1,11.006,7.8l7.253,42.578a9.539,9.539,0,0,1-7.8,11.006" fill="#8099b3"/>
    <path id="Path_9540" data-name="Path 9540" d="M110.972,73.774,36.2,86.511a9.539,9.539,0,0,1-11.006-7.8L17.941,36.131a9.54,9.54,0,0,1,7.8-11.006l74.772-12.737a9.539,9.539,0,0,1,11.006,7.8l7.253,42.578A9.539,9.539,0,0,1,110.972,73.774Z" fill="none" stroke="#036" stroke-linejoin="round" stroke-width="4"/>
    <line id="Line_464" data-name="Line 464" y1="4.883" x2="28.662" transform="translate(70.515 29.511)" fill="none" stroke="#036" stroke-linecap="round" stroke-linejoin="round" stroke-width="4"/>
    <line id="Line_465" data-name="Line 465" y1="4.883" x2="28.662" transform="translate(72.946 43.785)" fill="none" stroke="#036" stroke-linecap="round" stroke-linejoin="round" stroke-width="4"/>
    <line id="Line_466" data-name="Line 466" y1="4.883" x2="28.662" transform="translate(75.378 58.059)" fill="none" stroke="#036" stroke-linecap="round" stroke-linejoin="round" stroke-width="4"/>
    <path id="Path_9541" data-name="Path 9541" d="M44.561,37.591a7.149,7.149,0,1,1-5.847,8.248,7.149,7.149,0,0,1,5.847-8.248" fill="#036"/>
    <path id="Path_9542" data-name="Path 9542" d="M47.407,54.287h0a11.17,11.17,0,0,1,12.887,9.136l.045.26a1.614,1.614,0,0,1-1.32,1.862l-18.843,3.21a1.615,1.615,0,0,1-1.862-1.32l-.043-.26a11.17,11.17,0,0,1,9.136-12.888" fill="#036"/>
    <path id="Path_9543" data-name="Path 9543" d="M173.3,151.707,94.445,130.8a6.722,6.722,0,0,1-4.775-8.22l12.87-48.55a6.724,6.724,0,0,1,8.221-4.775l78.857,20.9a6.723,6.723,0,0,1,4.775,8.22l-12.871,48.55a6.722,6.722,0,0,1-8.22,4.775" fill="#8099b3"/>
    <path id="Path_9544" data-name="Path 9544" d="M173.3,151.707,94.445,130.8a6.722,6.722,0,0,1-4.775-8.22l12.87-48.55a6.724,6.724,0,0,1,8.221-4.775l78.857,20.9a6.723,6.723,0,0,1,4.775,8.22l-12.871,48.55A6.722,6.722,0,0,1,173.3,151.707Z" fill="none" stroke="#036" stroke-linejoin="round" stroke-width="4"/>
    <line id="Line_467" data-name="Line 467" x2="44.203" y2="11.718" transform="translate(105.474 106.538)" fill="none" stroke="#036" stroke-linecap="round" stroke-linejoin="round" stroke-width="4"/>
    <rect id="Rectangle_6186" data-name="Rectangle 6186" width="10.459" height="95.025" transform="translate(97.32 93.725) rotate(-75.152)" fill="#036"/>
    <path id="Path_9545" data-name="Path 9545" d="M80.527,99.5l17.509,53.84a8.388,8.388,0,0,1-5.383,10.571L49.389,177.981A8.388,8.388,0,0,1,38.818,172.6l-17.509-53.84a8.388,8.388,0,0,1,5.383-10.571l43.264-14.07A8.389,8.389,0,0,1,80.527,99.5" fill="#8099b3"/>
    <path id="Path_9546" data-name="Path 9546" d="M80.527,99.5l17.509,53.84a8.388,8.388,0,0,1-5.383,10.571L49.389,177.981A8.388,8.388,0,0,1,38.818,172.6l-17.509-53.84a8.388,8.388,0,0,1,5.383-10.571l43.264-14.07A8.389,8.389,0,0,1,80.527,99.5Z" fill="none" stroke="#036" stroke-linejoin="round" stroke-width="4"/>
    <line id="Line_468" data-name="Line 468" y1="12.014" x2="36.942" transform="translate(33.27 108.538)" fill="none" stroke="#036" stroke-linecap="round" stroke-linejoin="round" stroke-width="4"/>
    <line id="Line_469" data-name="Line 469" y1="12.014" x2="36.942" transform="translate(37.748 122.308)" fill="none" stroke="#036" stroke-linecap="round" stroke-linejoin="round" stroke-width="4"/>
    <line id="Line_470" data-name="Line 470" y1="7.478" x2="22.995" transform="translate(42.226 140.614)" fill="none" stroke="#036" stroke-linecap="round" stroke-linejoin="round" stroke-width="4"/>
    <line id="Line_471" data-name="Line 471" y1="4.592" x2="14.119" transform="translate(46.704 157.27)" fill="none" stroke="#036" stroke-linecap="round" stroke-linejoin="round" stroke-width="4"/>
    <path id="Path_9547" data-name="Path 9547" d="M99.056,147.734a15.465,15.465,0,0,0-28.213,12.677,15.224,15.224,0,0,0,3.911,5.3,15.464,15.464,0,0,0,3.9,2.495,16.041,16.041,0,0,0,2.063.749c.309.078.619.156.934.222a12.689,12.689,0,0,0,2.069.316,15.061,15.061,0,0,0,4.927-.4c.352-.083.707-.188,1.049-.3.418-.136.821-.288,1.218-.459.123-.04.25-.1.371-.152q.646-.29,1.247-.627c.257-.146.512-.3.756-.456.156-.1.3-.2.448-.3q.287-.187.563-.4c.229-.169.445-.345.659-.53s.416-.367.617-.558c.146-.132.28-.27.414-.408.175-.173.338-.352.5-.531.108-.119.213-.248.319-.377.076-.088.153-.176.226-.274.112-.141.214-.279.316-.418.141-.182.278-.374.4-.572.121-.177.24-.362.349-.545a.171.171,0,0,0,.054-.091,15.426,15.426,0,0,0,.9-14.351m-3.1,9.493,0,.01a11.423,11.423,0,0,1-.648,1.725c-.19.387-.392.768-.613,1.124a4.453,4.453,0,0,1-.335.519,5.67,5.67,0,0,1-.365.5c-.108.151-.229.3-.351.441a1.06,1.06,0,0,0-.153.175,10.268,10.268,0,0,1-1.124,1.1.615.615,0,0,0-.118.091c-.289.241-.585.464-.9.683a12.286,12.286,0,0,1-1.711.945,8.383,8.383,0,0,1-1.034.41c-.019.006-.041,0-.057.019l-.067.022a11.258,11.258,0,0,1-5.515.373c-.221-.033-.445-.076-.663-.131-.012-.006-.012-.006-.022,0-.2-.049-.413-.108-.612-.169-.1-.029-.221-.065-.328-.1l-.464-.165a9.6,9.6,0,0,1-1.157-.517,4.724,4.724,0,0,1-.56-.3,5.64,5.64,0,0,1-.526-.323c-.214-.14-.422-.294-.629-.447a.574.574,0,0,0-.082-.058,11.466,11.466,0,0,1,2.325-19.526,10.719,10.719,0,0,1,1.167-.453,11.483,11.483,0,0,1,11.394,2.572,11.186,11.186,0,0,1,2.592,3.637,11.414,11.414,0,0,1,.582,7.771c-.013.025-.013.057-.026.082" fill="#036"/>
    <path id="Path_9548" data-name="Path 9548" d="M95.986,157.145c-.013.025-.013.057-.026.082l0,.01a12.525,12.525,0,0,1-.648,1.725c-.19.387-.392.768-.612,1.124q-.155.255-.336.519a5.872,5.872,0,0,1-.364.5c-.109.151-.23.3-.352.441a1.03,1.03,0,0,0-.153.176,14.255,14.255,0,0,1-1.124,1.1.615.615,0,0,0-.118.091c-.289.241-.594.467-.9.683a12.4,12.4,0,0,1-1.711.946c-.305.13-.616.242-.926.353a1.162,1.162,0,0,0-.165.075.533.533,0,0,0-.178.037,11.3,11.3,0,0,1-5.4.358c-.221-.033-.448-.085-.663-.131-.012-.006-.012-.006-.022,0-.2-.049-.413-.108-.612-.169-.1-.029-.221-.065-.328-.1l-.464-.164a9.764,9.764,0,0,1-1.157-.518,6.231,6.231,0,0,1-.56-.3c-.18-.1-.353-.211-.526-.323-.214-.14-.422-.294-.629-.447a.6.6,0,0,0-.082-.058,11.466,11.466,0,0,1,2.325-19.526,10.719,10.719,0,0,1,1.167-.453,11.483,11.483,0,0,1,11.394,2.572,11.186,11.186,0,0,1,2.592,3.637,11.414,11.414,0,0,1,.582,7.771" fill="#8099b3"/>
    <path id="Path_9549" data-name="Path 9549" d="M90.183,165.331a1.966,1.966,0,0,0-1.575-.382l-.038.013-.019.006a.527.527,0,0,0-.177.037,11.3,11.3,0,0,1-5.4.358c-.221-.033-.449-.085-.663-.131-.013-.006-.013-.006-.022,0-.206-.049-.414-.108-.613-.169-.1-.03-.221-.065-.328-.1a4.9,4.9,0,0,1-.464-.165,9.514,9.514,0,0,1-1.156-.517,6.249,6.249,0,0,1-.561-.3c-.179-.1-.353-.211-.526-.323-.214-.141-.421-.294-.629-.447a.48.48,0,0,0-.082-.058,2,2,0,0,0-3.129,1.565l-.042,1-.836,21.2a2.005,2.005,0,0,0,1.223,1.915,1.981,1.981,0,0,0,2.226-.461l4.825-5.049,4.422,5.417a1.994,1.994,0,0,0,2.162.633l.019-.006a1.989,1.989,0,0,0,1.367-1.812l.615-15.763.139-3.452L90.968,167a1.986,1.986,0,0,0-.785-1.669m-3.306,4.093-.5,12.687-2.514-3.073a1.927,1.927,0,0,0-1.468-.732,1.808,1.808,0,0,0-.7.09,1.992,1.992,0,0,0-.829.522l-2.738,2.867.527-13.579a15.973,15.973,0,0,0,2.062.749c.31.078.619.156.935.222a14.859,14.859,0,0,0,2.069.316,15.665,15.665,0,0,0,3.15-.079Z" fill="#036"/>
    <path id="Path_9550" data-name="Path 9550" d="M86.874,169.415l0,.01-.5,12.686-2.513-3.073a1.933,1.933,0,0,0-1.469-.732,1.847,1.847,0,0,0-.7.09,1.992,1.992,0,0,0-.829.522l-2.738,2.867.527-13.578a16.177,16.177,0,0,0,2.062.749c.31.078.619.156.935.221a14.859,14.859,0,0,0,2.069.316,15.737,15.737,0,0,0,3.15-.078" fill="#8099b3"/>
    <path id="Path_9551" data-name="Path 9551" d="M113.309,174.1l-13.244-16.8-.605-.76a2.017,2.017,0,0,0-1.959-.72,1.985,1.985,0,0,0-1.514,1.324c-.013.025-.014.057-.026.082l0,.009a11.3,11.3,0,0,1-1.261,2.85q-.153.255-.336.519a5.66,5.66,0,0,1-.364.5c-.108.151-.23.3-.351.44a1.111,1.111,0,0,0-.153.176,14.109,14.109,0,0,1-1.125,1.1.607.607,0,0,0-.117.091c-.29.241-.6.467-.9.683a12.24,12.24,0,0,1-1.712.945c-.3.131-.615.243-.926.354a.966.966,0,0,0-.146.069l-.019.006-.066.021a2.051,2.051,0,0,0-1.028,1.239,2.006,2.006,0,0,0,.351,1.789l.843,1.072,2.127,2.694,9.779,12.383a1.964,1.964,0,0,0,2.161.664l.019-.006a2,2,0,0,0,1.386-1.786l.38-6.98,6.882,1.243a2,2,0,0,0,1.924-3.2M103,171.721a2,2,0,0,0-1.594.4,1.973,1.973,0,0,0-.766,1.458l-.216,3.961-7.886-9.991c.257-.146.511-.3.756-.456.155-.1.3-.2.448-.3.191-.126.378-.26.563-.4.229-.169.445-.345.658-.53s.417-.367.618-.558c.146-.132.28-.27.414-.408.175-.173.338-.352.5-.531.109-.119.214-.248.319-.377.077-.088.153-.176.227-.274.111-.141.214-.28.316-.418.14-.182.278-.374.4-.573.121-.176.24-.361.348-.544a.165.165,0,0,0,.055-.091c.086-.123.175-.268.256-.41L106.9,172.43Z" fill="#036"/>
    <path id="Path_9552" data-name="Path 9552" d="M106.9,172.43l-3.9-.709a2,2,0,0,0-1.594.4,1.969,1.969,0,0,0-.766,1.459l-.216,3.961-7.886-9.991c.257-.147.511-.3.755-.456.156-.1.3-.2.449-.3.19-.125.378-.26.562-.4.229-.169.446-.344.659-.529s.417-.367.617-.559c.147-.131.281-.27.414-.408.176-.172.338-.351.5-.531.108-.119.214-.248.319-.377.076-.088.153-.176.227-.273.111-.142.213-.28.316-.418.14-.183.278-.375.4-.573.122-.176.24-.362.349-.545a.167.167,0,0,0,.054-.091c.087-.123.176-.267.256-.409Z" fill="#8099b3"/>
    <path id="Path_9553" data-name="Path 9553" d="M99.754,62.057c23.256,0,36.523,13.221,36.523,13.221,0,65.774-36.523,69.74-36.523,69.74s-36.523-3.966-36.523-69.74c0,0,13.267-13.221,36.523-13.221" fill="#f9f1c6"/>
    <path id="Path_9554" data-name="Path 9554" d="M99.754,62.057c23.256,0,36.523,13.221,36.523,13.221,0,65.774-36.523,69.74-36.523,69.74s-36.523-3.966-36.523-69.74C63.231,75.278,76.5,62.057,99.754,62.057Z" fill="none" stroke="#fcba19" stroke-width="4"/>
    <path id="Path_9555" data-name="Path 9555" d="M99.794,80.394a8.148,8.148,0,0,0-8.138,8.138v5.156h4.238v-5.3a3.859,3.859,0,0,1,7.718,0v5.3h4.323V88.532a8.149,8.149,0,0,0-8.141-8.138" fill="#fcba19"/>
    <path id="Path_9556" data-name="Path 9556" d="M113.322,92.855H86.186a1.974,1.974,0,0,0-1.975,1.974v19.194A1.975,1.975,0,0,0,86.186,116h27.136a1.975,1.975,0,0,0,1.975-1.975V94.829a1.974,1.974,0,0,0-1.975-1.974m-12.071,13.186v3.53a.6.6,0,0,1-.6.6H98.857a.6.6,0,0,1-.6-.6v-3.53a3.831,3.831,0,1,1,2.994,0" fill="#fcba19"/>
  </g>
</svg>
