<svg id="Layer_1" data-name="Layer 1" xmlns="http://www.w3.org/2000/svg" viewBox="0 0 200 200">
  <defs>
    <style>
      .cls-1 {
        fill: none;
      }

      .cls-2 {
        fill: #8099b3;
      }

      .cls-3 {
        fill: #036;
      }

      .cls-4 {
        fill: #f9f1c6;
      }

      .cls-5 {
        fill: #fcba19;
      }

      .cls-6 {
        fill: #f2dede;
      }

      .cls-7 {
        fill: #a12622;
      }
    </style>
  </defs>
  <rect class="cls-1" width="200" height="200" />
  <path class="cls-2"
    d="M127.2,86.23v48.28a28.94,28.94,0,1,1-57.88,0V100.4a2.62,2.62,0,0,1,2.62-2.62h1.18a7.78,7.78,0,0,1,7.77,7.78v-31a5.79,5.79,0,1,1,11.58,0V68.8a5.79,5.79,0,1,1,11.58,0v5.76a5.79,5.79,0,0,1,5.78-5.79,5.8,5.8,0,0,1,5.79,5.79V86.23a5.79,5.79,0,1,1,11.58,0Z" />
  <path class="cls-3"
    d="M80.89,107.56a2,2,0,0,1-2-2v-31a7.79,7.79,0,1,1,15.58,0,2,2,0,0,1-4,0,3.79,3.79,0,1,0-7.58,0v31A2,2,0,0,1,80.89,107.56Z" />
  <path class="cls-3"
    d="M127.2,122.66a2,2,0,0,1-2-2V86.23a3.79,3.79,0,1,0-7.58,0,2,2,0,1,1-4,0,7.79,7.79,0,1,1,15.58,0v34.43A2,2,0,0,1,127.2,122.66Z" />
  <path class="cls-3"
    d="M115.62,114.38a2,2,0,0,1-2-2V74.56a3.79,3.79,0,1,0-7.58,0,2,2,0,0,1-4,0,7.79,7.79,0,0,1,15.58,0v37.82A2,2,0,0,1,115.62,114.38Z" />
  <path class="cls-3"
    d="M104,111a2,2,0,0,1-2-2V68.79a3.79,3.79,0,0,0-7.57,0V109a2,2,0,0,1-4,0V68.79a7.79,7.79,0,0,1,15.57,0V109A2,2,0,0,1,104,111Z" />
  <path class="cls-3"
    d="M98.26,165.44A31,31,0,0,1,67.32,134.5V114.72a2,2,0,0,1,4,0V134.5a26.94,26.94,0,1,0,53.88,0V114.72a2,2,0,1,1,4,0V134.5A31,31,0,0,1,98.26,165.44Z" />
  <rect class="cls-4" x="51.48" y="54.03" width="97.05" height="65.03" rx="6.87" />
  <path class="cls-5"
    d="M141.66,121.06H58.34a8.87,8.87,0,0,1-8.86-8.86V60.9A8.87,8.87,0,0,1,58.34,52h83.32a8.87,8.87,0,0,1,8.86,8.87v51.3A8.87,8.87,0,0,1,141.66,121.06ZM58.34,56a4.87,4.87,0,0,0-4.86,4.87v51.3a4.87,4.87,0,0,0,4.86,4.86h83.32a4.87,4.87,0,0,0,4.86-4.86V60.9A4.87,4.87,0,0,0,141.66,56Z" />
  <path class="cls-5" d="M109.58,94.22H62.88a2,2,0,1,1,0-4h46.7a2,2,0,1,1,0,4Z" />
  <rect class="cls-5" x="51.48" y="71.02" width="97.05" height="10.68" />
  <path class="cls-3"
    d="M98.26,141.07a2,2,0,0,1-2-2,15.39,15.39,0,0,0-15.37-15.36,2,2,0,0,1-2-2V105.56a5.78,5.78,0,0,0-5.77-5.78H71.94a.62.62,0,0,0-.62.62v29.82a2,2,0,0,1-4,0V100.4a4.62,4.62,0,0,1,4.62-4.62h1.18a9.79,9.79,0,0,1,9.77,9.78v14.25a19.4,19.4,0,0,1,17.37,19.26A2,2,0,0,1,98.26,141.07Z" />
  <path class="cls-2"
    d="M98.26,139.07a17.37,17.37,0,0,0-17.37-17.36V105.56h0a7.77,7.77,0,0,0-7.77-7.78H71.94a2.62,2.62,0,0,0-2.62,2.62v29.82" />
  <path class="cls-3"
    d="M98.26,141.07a2,2,0,0,1-2-2,15.39,15.39,0,0,0-15.37-15.36,2,2,0,0,1-2-2V105.56a5.78,5.78,0,0,0-5.77-5.78H71.94a.62.62,0,0,0-.62.62v29.82a2,2,0,0,1-4,0V100.4a4.62,4.62,0,0,1,4.62-4.62h1.18a9.79,9.79,0,0,1,9.77,9.78v14.25a19.4,19.4,0,0,1,17.37,19.26A2,2,0,0,1,98.26,141.07Z" />
  <path class="cls-3"
    d="M127.71,88.75a4.5,4.5,0,0,0-4.5,4.5V96.1h2.34V93.17a2.14,2.14,0,0,1,4.27,0V96.1h2.39V93.25A4.51,4.51,0,0,0,127.71,88.75Z" />
  <path class="cls-3"
    d="M135.18,95.64h-15a1.09,1.09,0,0,0-1.09,1.09v10.61a1.09,1.09,0,0,0,1.09,1.1h15a1.1,1.1,0,0,0,1.1-1.1V96.73A1.09,1.09,0,0,0,135.18,95.64Zm-6.67,7.29v1.95a.33.33,0,0,1-.33.33h-1a.32.32,0,0,1-.33-.33v-1.95a2.12,2.12,0,1,1,1.65,0Z" />
  <circle class="cls-6" cx="100" cy="49.79" r="15.75" />
  <path class="cls-7"
    d="M100,67.55a17.76,17.76,0,1,1,17.75-17.76A17.78,17.78,0,0,1,100,67.55ZM100,36a13.76,13.76,0,1,0,13.75,13.75A13.77,13.77,0,0,0,100,36Z" />
  <path class="cls-7"
    d="M104.33,56.33l-4.28-4.27L95.9,56.21a1.69,1.69,0,0,1-2.39,0h0a1.68,1.68,0,0,1,0-2.38l4.16-4.16-4-4a1.69,1.69,0,0,1,0-2.39h0a1.69,1.69,0,0,1,2.39,0l4,4,4.16-4.16a1.68,1.68,0,0,1,2.38,0h0a1.69,1.69,0,0,1,0,2.39l-4.15,4.15L106.71,54a1.68,1.68,0,0,1,0,2.38h0A1.68,1.68,0,0,1,104.33,56.33Z" />
</svg>