<?xml version="1.0" encoding="UTF-8"?><svg id="Layer_1" xmlns="http://www.w3.org/2000/svg" viewBox="0 0 200 200"><defs><style>.cls-1{fill:#fcba19;}.cls-2{fill:#f9f1c6;}.cls-3{fill:#036;}.cls-4{fill:#8099b3;}</style></defs><g id="Group_2455"><path id="Path_683" class="cls-4" d="M113.8,31.81v125.17c0,3.79-3.06,6.86-6.85,6.87H33.77c-3.79,0-6.86-3.07-6.86-6.86,0,0,0,0,0,0V31.81c0-3.79,3.07-6.86,6.86-6.86H106.95c3.79,0,6.86,3.07,6.86,6.86"/><path class="cls-3" d="M104.06,8.43H36.66c-8.98,0-16.27,7.29-16.27,16.27V175.3c0,8.99,7.29,16.27,16.27,16.27H104.06c8.98,0,16.27-7.29,16.27-16.27V24.7c0-8.99-7.29-16.27-16.27-16.27Zm9.74,148.56c0,3.79-3.06,6.86-6.85,6.87H33.77c-3.79,0-6.86-3.07-6.86-6.86h0V31.81c0-3.79,3.07-6.85,6.86-6.86H106.95c3.79,0,6.85,3.07,6.86,6.86v125.17Z"/><circle id="Ellipse_106" class="cls-4" cx="70.36" cy="178.1" r="7.59"/><path id="Rectangle_4575" class="cls-4" d="M62.77,15.39h15.19c1.2,0,2.17,.97,2.17,2.17h0c0,1.2-.97,2.17-2.17,2.17h-15.19c-1.2,0-2.17-.97-2.17-2.17h0c0-1.2,.97-2.17,2.17-2.17Z"/></g><path class="cls-1" d="M170.99,35.36H78.98c-4.76,0-8.62,3.86-8.62,8.62v87.77c0,1.55,1.87,2.32,2.97,1.23l25.99-25.99h71.68c4.76,0,8.62-3.86,8.62-8.62V43.98c0-4.76-3.86-8.62-8.62-8.62Z"/><path class="cls-2" d="M124.99,46.84h0c9.35,0,16.94,7.59,16.94,16.94v19.45h-33.89v-19.45c0-9.35,7.59-16.94,16.94-16.94Z"/><path class="cls-2" d="M105.17,59.65c-.1,0-.2-.01-.3-.04-.64-.16-1.03-.82-.87-1.46,1.39-5.46,4.82-10.1,9.63-13.07,.56-.35,1.31-.17,1.66,.39,.35,.57,.17,1.31-.39,1.66-4.28,2.64-7.32,6.76-8.56,11.61-.14,.54-.63,.9-1.16,.9Z"/><path class="cls-2" d="M140.25,80.73h-30.53c-2.93,2.93-4.57,4.57-7.49,7.49v2.93h45.52v-2.93c-2.93-2.93-4.57-4.57-7.49-7.49Z"/><circle class="cls-2" cx="124.99" cy="46.84" r="3.77"/><path class="cls-2" d="M144.8,59.65c-.54,0-1.03-.36-1.16-.9-1.24-4.85-4.28-8.97-8.56-11.61-.57-.35-.74-1.09-.39-1.66,.35-.57,1.09-.74,1.66-.39,4.82,2.97,8.24,7.61,9.63,13.07,.16,.64-.22,1.3-.87,1.46-.1,.03-.2,.04-.3,.04Z"/><path class="cls-2" d="M124.99,98.75c2.92,0,5.29-2.37,5.29-5.29h-10.58c0,2.92,2.37,5.29,5.29,5.29Z"/></svg>