<svg id="Layer_1" data-name="Layer 1" xmlns="http://www.w3.org/2000/svg" viewBox="0 0 200 200">
  <defs>
    <style>
      .cls-1,
      .cls-3 {
        fill: none;
      }

      .cls-2 {
        fill: #313132;
      }

      .cls-3 {
        stroke: #d8292f;
        stroke-linecap: round;
        stroke-miterlimit: 10;
        stroke-width: 4px;
      }
    </style>
  </defs>
  <rect class="cls-1" width="200" height="200" />
  <path class="cls-2"
    d="M180.44,136.84H108.12a8.12,8.12,0,0,1-8.12-8.11V71.27a8.12,8.12,0,0,1,8.12-8.11h72.32a8.12,8.12,0,0,1,8.11,8.11v57.46A8.12,8.12,0,0,1,180.44,136.84ZM108.12,67.16A4.12,4.12,0,0,0,104,71.27v57.46a4.12,4.12,0,0,0,4.12,4.11h72.32a4.12,4.12,0,0,0,4.11-4.11V71.27a4.12,4.12,0,0,0-4.11-4.11Z" />
  <polygon class="cls-2" points="131.27 96.59 142.82 122.6 146.49 111.81 157.28 108.14 131.27 96.59" />
  <path class="cls-2"
    d="M154.91,122.23a2,2,0,0,1-1.42-.59l-8.41-8.41a2,2,0,1,1,2.83-2.83l8.41,8.41a2,2,0,0,1-1.41,3.42Z" />
  <rect class="cls-2" x="102" y="81.92" width="84.55" height="4" />
  <circle class="cls-2" cx="114.27" cy="74.62" r="2.95" />
  <circle class="cls-2" cx="123.73" cy="74.62" r="2.95" />
  <circle class="cls-2" cx="133.18" cy="74.62" r="2.95" />
  <path class="cls-2"
    d="M13.45,88a2,2,0,0,1-2-2V65.16a2,2,0,0,1,2-2H34.32a2,2,0,0,1,0,4H15.45V86A2,2,0,0,1,13.45,88Z" />
  <path class="cls-2"
    d="M83.13,88a2,2,0,0,1-2-2V67.16H62.26a2,2,0,1,1,0-4H83.13a2,2,0,0,1,2,2V86A2,2,0,0,1,83.13,88Z" />
  <path class="cls-2" d="M83.13,136.84H62.26a2,2,0,1,1,0-4H81.13V114a2,2,0,0,1,4,0v20.87A2,2,0,0,1,83.13,136.84Z" />
  <path class="cls-2" d="M34.32,136.84H13.45a2,2,0,0,1-2-2V114a2,2,0,0,1,4,0v18.87H34.32a2,2,0,0,1,0,4Z" />
  <rect class="cls-2" x="28.09" y="79.8" width="6.73" height="6.73" />
  <rect class="cls-2" x="44.92" y="93.26" width="3.37" height="3.37" />
  <rect class="cls-2" x="48.29" y="89.9" width="3.37" height="3.37" />
  <rect class="cls-2" x="44.92" y="86.53" width="3.37" height="3.37" />
  <rect class="cls-2" x="48.29" y="83.17" width="3.37" height="3.37" />
  <rect class="cls-2" x="44.92" y="79.8" width="3.37" height="3.37" />
  <rect class="cls-2" x="48.29" y="76.43" width="3.37" height="3.37" />
  <rect class="cls-2" x="48.29" y="79.8" width="3.37" height="3.37" />
  <rect class="cls-2" x="44.92" y="73.07" width="3.37" height="3.37" />
  <rect class="cls-2" x="21.36" y="96.63" width="3.37" height="3.37" />
  <rect class="cls-2" x="28.09" y="96.63" width="3.37" height="3.37" />
  <rect class="cls-2" x="38.19" y="96.63" width="3.37" height="3.37" />
  <rect class="cls-2" x="48.29" y="96.63" width="3.37" height="3.37" />
  <rect class="cls-2" x="55.02" y="96.63" width="3.37" height="3.37" />
  <rect class="cls-2" x="61.75" y="96.63" width="3.37" height="3.37" />
  <rect class="cls-2" x="68.48" y="96.63" width="3.37" height="3.37" />
  <rect class="cls-2" x="24.72" y="100" width="3.37" height="3.37" />
  <rect class="cls-2" x="31.46" y="100" width="3.37" height="3.37" />
  <rect class="cls-2" x="44.92" y="100" width="3.37" height="3.37" />
  <rect class="cls-2" x="38.19" y="100" width="3.37" height="3.37" />
  <rect class="cls-2" x="51.65" y="100" width="3.37" height="3.37" />
  <rect class="cls-2" x="55.02" y="100" width="3.37" height="3.37" />
  <rect class="cls-2" x="58.38" y="100" width="3.37" height="3.37" />
  <rect class="cls-2" x="65.12" y="100" width="3.37" height="3.37" />
  <rect class="cls-2" x="68.48" y="100" width="3.37" height="3.37" />
  <rect class="cls-2" x="48.29" y="103.36" width="3.37" height="3.37" />
  <rect class="cls-2" x="55.02" y="103.36" width="3.37" height="3.37" />
  <rect class="cls-2" x="61.75" y="103.36" width="3.37" height="3.37" />
  <rect class="cls-2" x="65.12" y="103.36" width="3.37" height="3.37" />
  <rect class="cls-2" x="71.85" y="103.36" width="3.37" height="3.37" />
  <rect class="cls-2" x="44.92" y="106.73" width="3.37" height="3.37" />
  <rect class="cls-2" x="48.29" y="106.73" width="3.37" height="3.37" />
  <rect class="cls-2" x="51.65" y="106.73" width="3.37" height="3.37" />
  <rect class="cls-2" x="61.75" y="106.73" width="3.37" height="3.37" />
  <rect class="cls-2" x="68.48" y="106.73" width="3.37" height="3.37" />
  <rect class="cls-2" x="55.02" y="110.09" width="3.37" height="3.37" />
  <rect class="cls-2" x="58.38" y="110.09" width="3.37" height="3.37" />
  <rect class="cls-2" x="65.12" y="110.09" width="3.37" height="3.37" />
  <rect class="cls-2" x="68.48" y="110.09" width="3.37" height="3.37" />
  <rect class="cls-2" x="44.92" y="113.46" width="3.37" height="3.37" />
  <rect class="cls-2" x="48.29" y="113.46" width="3.37" height="3.37" />
  <rect class="cls-2" x="55.02" y="113.46" width="3.37" height="3.37" />
  <rect class="cls-2" x="61.75" y="113.46" width="3.37" height="3.37" />
  <rect class="cls-2" x="65.12" y="113.46" width="3.37" height="3.37" />
  <rect class="cls-2" x="71.85" y="113.46" width="3.37" height="3.37" />
  <rect class="cls-2" x="48.29" y="116.83" width="3.37" height="3.37" />
  <rect class="cls-2" x="51.65" y="116.83" width="3.37" height="3.37" />
  <rect class="cls-2" x="58.38" y="116.83" width="3.37" height="3.37" />
  <rect class="cls-2" x="65.12" y="116.83" width="3.37" height="3.37" />
  <rect class="cls-2" x="68.48" y="116.83" width="3.37" height="3.37" />
  <rect class="cls-2" x="71.85" y="116.83" width="3.37" height="3.37" />
  <rect class="cls-2" x="44.92" y="120.19" width="3.37" height="3.37" />
  <rect class="cls-2" x="51.65" y="120.19" width="3.37" height="3.37" />
  <rect class="cls-2" x="55.02" y="120.19" width="3.37" height="3.37" />
  <rect class="cls-2" x="61.75" y="120.19" width="3.37" height="3.37" />
  <rect class="cls-2" x="68.48" y="120.19" width="3.37" height="3.37" />
  <rect class="cls-2" x="48.29" y="123.56" width="3.37" height="3.37" />
  <rect class="cls-2" x="58.38" y="123.56" width="3.37" height="3.37" />
  <rect class="cls-2" x="68.48" y="123.56" width="3.37" height="3.37" />
  <path class="cls-2" d="M38.55,76.07V90.26H24.36V76.07H38.55m3-3H21.36V93.26H41.55V73.07Z" />
  <rect class="cls-2" x="28.09" y="113.44" width="6.73" height="6.73" />
  <path class="cls-2" d="M38.55,109.7v14.2H24.36V109.7H38.55m3-3H21.36v20.2H41.55V106.7Z" />
  <rect class="cls-2" x="61.75" y="79.8" width="6.73" height="6.73" />
  <path class="cls-2" d="M72.21,76.07V90.26H58V76.07H72.21m3-3H55V93.26H75.21V73.07Z" />
  <line class="cls-3" x1="13.64" y1="99.96" x2="83.34" y2="99.96" />
</svg>