<svg id="Layer_1" data-name="Layer 1" xmlns="http://www.w3.org/2000/svg" viewBox="0 0 200 200">
  <defs>
    <style>
      .cls-1,
      .cls-2,
      .cls-4 {
        fill: none;
      }

      .cls-2,
      .cls-4 {
        stroke: #313132;
      }

      .cls-2 {
        stroke-width: 4px;
      }

      .cls-3 {
        fill: #313132;
      }

      .cls-4 {
        stroke-width: 5px;
        stroke-dasharray: 5 5;
      }

      .cls-5 {
        fill: #036;
      }
    </style>
  </defs>
  <rect class="cls-1" width="200" height="200" />
  <g id="Group_1999" data-name="Group 1999">
    <rect id="Rectangle_39" data-name="Rectangle 39" class="cls-1" width="200" height="200" />
    <path id="Icon_awesome-building" data-name="Icon awesome-building" class="cls-2"
      d="M66.77,126.21h-3V57.93a3.6,3.6,0,0,0-3.6-3.59H17.24a3.59,3.59,0,0,0-3.59,3.59h0v68.28h-3a1.79,1.79,0,0,0-1.8,1.8h0v3H68.57v-3A1.81,1.81,0,0,0,66.77,126.21ZM24,65.72a1.81,1.81,0,0,1,1.8-1.8h6a1.81,1.81,0,0,1,1.8,1.8v6a1.81,1.81,0,0,1-1.8,1.8h-6a1.81,1.81,0,0,1-1.8-1.8Zm0,14.37a1.81,1.81,0,0,1,1.8-1.8h6a1.81,1.81,0,0,1,1.8,1.8v6a1.8,1.8,0,0,1-1.8,1.8h-6a1.8,1.8,0,0,1-1.8-1.8Zm7.79,22.16h-6a1.8,1.8,0,0,1-1.8-1.8v-6a1.8,1.8,0,0,1,1.8-1.8h6a1.8,1.8,0,0,1,1.8,1.8v6A1.8,1.8,0,0,1,31.8,102.25Zm11.38,24H33.6V113.63a1.81,1.81,0,0,1,1.8-1.8h6a1.81,1.81,0,0,1,1.8,1.8Zm9.58-25.75a1.81,1.81,0,0,1-1.8,1.8H45a1.81,1.81,0,0,1-1.8-1.8v-6a1.8,1.8,0,0,1,1.8-1.8h6a1.79,1.79,0,0,1,1.8,1.8Zm0-14.38a1.8,1.8,0,0,1-1.8,1.8H45a1.8,1.8,0,0,1-1.8-1.8v-6a1.81,1.81,0,0,1,1.8-1.8h6a1.8,1.8,0,0,1,1.8,1.8Zm0-14.37a1.81,1.81,0,0,1-1.8,1.8H45a1.81,1.81,0,0,1-1.8-1.8v-6a1.81,1.81,0,0,1,1.8-1.8h6a1.8,1.8,0,0,1,1.8,1.8Z" />
    <g id="Group_1997" data-name="Group 1997">
      <rect class="cls-1" x="139.5" y="52" width="49" height="81" rx="9" />
      <rect class="cls-2" x="141.5" y="54" width="45" height="77" rx="7" />
      <rect class="cls-1" x="146.5" y="61" width="35" height="54" rx="2" />
      <rect class="cls-2" x="148.5" y="63" width="31" height="50" />
      <circle id="Ellipse_48" data-name="Ellipse 48" class="cls-3" cx="164" cy="121" r="4" />
    </g>
    <path id="Path_428" data-name="Path 428" class="cls-4" d="M83.6,91.5H62.78" />
    <path id="Path_429" data-name="Path 429" class="cls-4" d="M139.5,91.5H117" />
    <g id="Group_1998" data-name="Group 1998">
      <g id="Group_1942" data-name="Group 1942">
        <g id="Group_1940" data-name="Group 1940">
          <path id="Path_419" data-name="Path 419" class="cls-5"
            d="M107.23,91H93.54a1.73,1.73,0,0,0-1.78,1.69v9.22a1.73,1.73,0,0,0,1.78,1.69h13.69a1.73,1.73,0,0,0,1.78-1.69V92.69A1.73,1.73,0,0,0,107.23,91Zm-5.87,7.35v2.28a.39.39,0,0,1-.39.39H99.81a.39.39,0,0,1-.39-.39V98.35A2.48,2.48,0,1,1,102.67,97,2.52,2.52,0,0,1,101.36,98.35Z" />
        </g>
        <g id="Group_1941" data-name="Group 1941">
          <path id="Path_420" data-name="Path 420" class="cls-5"
            d="M105.56,92.08h-2.9V89.22a2.25,2.25,0,0,0-4.5,0v2.86h-2.9V89.22a5.15,5.15,0,1,1,10.3-.14.33.33,0,0,1,0,.14Z" />
        </g>
      </g>
      <g id="Group_1943" data-name="Group 1943">
        <path id="Path_421" data-name="Path 421" class="cls-5"
          d="M100.39,117.23l-.19,0c-.76-.08-18.7-2.4-18.7-34.49V82l.51-.51a28.51,28.51,0,0,1,36.77,0l.5.51v.71c0,32.09-17.94,34.41-18.7,34.49ZM85,83.49c.26,26.67,13.57,29.93,15.44,30.26,1.84-.32,15.18-3.55,15.44-30.26a25.26,25.26,0,0,0-30.87,0Z" />
      </g>
    </g>
  </g>
</svg>