<svg width="88" height="122" viewBox="0 0 88 122" fill="none" xmlns="http://www.w3.org/2000/svg">
<g id="Layer_1" clip-path="url(#clip0_3827_5036)">
<g id="Group_2455">
<g id="Path_683">
<path id="Vector" d="M74.4003 15.5806V98.9589C74.4003 101.483 72.3583 103.528 69.8291 103.535H20.9938C18.4646 103.535 16.4159 101.49 16.4159 98.9656V15.5806C16.4159 13.056 18.4646 11.011 20.9938 11.011H69.8291C72.3583 11.011 74.407 13.056 74.407 15.5806" fill="#8099B3"/>
</g>
<path id="Vector_2" d="M67.9005 0H22.9224C16.9297 0 12.0649 4.85602 12.0649 10.8378V111.162C12.0649 117.151 16.9297 122 22.9224 122H67.9072C73.8998 122 78.7647 117.144 78.7647 111.162V10.8378C78.7647 4.84936 73.8998 0 67.9072 0H67.9005ZM74.4003 98.9589C74.4003 101.483 72.3583 103.528 69.8291 103.535H20.9938C18.4646 103.535 16.4159 101.49 16.4159 98.9656V15.5806C16.4159 13.056 18.4646 11.0176 20.9938 11.011H69.8291C72.3583 11.011 74.4003 13.056 74.407 15.5806V98.9589H74.4003Z" fill="#003366"/>
<g id="Ellipse_106">
<path id="Vector_3" d="M45.4114 118.083C48.2088 118.083 50.4765 115.82 50.4765 113.027C50.4765 110.235 48.2088 107.971 45.4114 107.971C42.6141 107.971 40.3464 110.235 40.3464 113.027C40.3464 115.82 42.6141 118.083 45.4114 118.083Z" fill="#8099B3"/>
</g>
<g id="Rectangle_4575">
<path id="Vector_4" d="M40.3464 4.63623H50.4831C51.2839 4.63623 51.9312 5.28237 51.9312 6.08171C51.9312 6.88106 51.2839 7.52719 50.4831 7.52719H40.3464C39.5456 7.52719 38.8983 6.88106 38.8983 6.08171C38.8983 5.28237 39.5456 4.63623 40.3464 4.63623Z" fill="#8099B3"/>
</g>
</g>
<path id="Vector_5" d="M75.5081 50.8916C75.6882 49.7059 75.7817 48.5003 75.7817 47.2613C75.7817 33.9189 64.9442 23.1011 51.5776 23.1011C40.5399 23.1011 31.2373 30.4817 28.3277 40.5601C26.8863 40.2537 25.3981 40.0872 23.8633 40.0872C12.0248 40.0872 2.42859 49.666 2.42859 61.4829C2.42859 73.2999 12.0248 82.8787 23.8633 82.8787H68.8548C78.084 82.8787 85.5714 75.4115 85.5714 66.1924C85.5714 59.338 81.4273 53.4562 75.5081 50.885V50.8916Z" fill="#F9F1C6"/>
<path id="Vector_6" d="M68.8548 84.8105H23.8633C10.9838 84.8105 0.5 74.3457 0.5 61.4896C0.5 48.6335 10.9838 38.1687 23.8633 38.1687C24.911 38.1687 25.9587 38.242 27.0064 38.3819C30.7168 28.1702 40.5799 21.176 51.5775 21.176C65.9852 21.176 77.7103 32.8797 77.7103 47.2612C77.7103 48.0872 77.6702 48.9266 77.5901 49.7525C83.6562 52.9632 87.5 59.2647 87.5 66.1924C87.5 76.4573 79.1383 84.8038 68.8548 84.8038V84.8105ZM23.8633 42.0189C13.1059 42.0189 4.35718 50.7517 4.35718 61.4896C4.35718 72.2275 13.1059 80.9603 23.8633 80.9603H68.8548C77.0096 80.9603 83.6428 74.3391 83.6428 66.1991C83.6428 60.3172 80.146 55.0082 74.7406 52.6568L73.3793 52.064L73.5995 50.5985C73.7663 49.4928 73.8531 48.3737 73.8531 47.2612C73.8531 35.0046 63.8631 25.0261 51.5775 25.0261C41.7077 25.0261 32.9123 31.6341 30.1762 41.093L29.6757 42.8116L27.9207 42.4385C26.5726 42.1521 25.2046 42.0122 23.8566 42.0122L23.8633 42.0189Z" fill="#FCBA19"/>
<path id="Vector_7" d="M46.3123 64.0209C44.8375 64.0209 43.643 62.8285 43.643 61.3564V42.0322C43.643 40.5601 44.8375 39.3677 46.3123 39.3677C47.7871 39.3677 48.9817 40.5601 48.9817 42.0322V61.3564C48.9817 62.8285 47.7871 64.0209 46.3123 64.0209Z" fill="#FCBA19"/>
<path id="Vector_8" d="M46.3123 64.0209C45.6316 64.0209 44.9443 63.7611 44.4237 63.2415L34.8742 53.7093C33.8332 52.6702 33.8332 50.9849 34.8742 49.9391C35.9153 48.8999 37.6103 48.8999 38.6513 49.9391L46.3123 57.5862L53.9732 49.9391C55.0143 48.8999 56.7093 48.8999 57.7503 49.9391C58.7914 50.9782 58.7914 52.6635 57.7503 53.7093L48.2008 63.2415C47.6803 63.7611 46.9996 64.0209 46.3123 64.0209Z" fill="#FCBA19"/>
<path id="Vector_9" d="M57.4834 72.6671H35.1412C33.6664 72.6671 32.4719 71.4747 32.4719 70.0026C32.4719 68.5305 33.6664 67.3381 35.1412 67.3381H57.4834C58.9582 67.3381 60.1528 68.5305 60.1528 70.0026C60.1528 71.4747 58.9582 72.6671 57.4834 72.6671Z" fill="#FCBA19"/>
</g>
<defs>
<clipPath id="clip0_3827_5036">
<rect width="87" height="122" fill="white" transform="translate(0.5)"/>
</clipPath>
</defs>
</svg>
