<svg id="Layer_1" data-name="Layer 1" xmlns="http://www.w3.org/2000/svg" viewBox="0 0 110.9 77.71">
  <defs>
    <style>
      .cls-1 {
        fill: #8099b3;
      }

      .cls-2 {
        fill: #036;
      }
    </style>
  </defs>
  <g id="Path_536" data-name="Path 536">
    <path class="cls-1"
      d="M71.6,43v2.57A11.36,11.36,0,0,0,83,56.89h20.2V68.76a7,7,0,0,1-7,6.95H9A7,7,0,0,1,2,68.76H2V2A7,7,0,0,0,9,9H96.19a7,7,0,0,1,7,7v15.7H83A11.35,11.35,0,0,0,71.6,43" />
  </g>
  <g id="Path_537" data-name="Path 537">
    <path class="cls-2"
      d="M9,77.71A8.95,8.95,0,0,1,0,68.76V2H0A2,2,0,0,1,2,0H2A2,2,0,0,1,4,2,5,5,0,0,0,9,7H96.19a9,9,0,0,1,9,9v15.7a2,2,0,0,1-2,2H83A9.37,9.37,0,0,0,73.6,43v2.57A9.38,9.38,0,0,0,83,54.89h20.19a2,2,0,0,1,2,2V68.76a8.95,8.95,0,0,1-9,8.95H9ZM4,9.46v59.3A5,5,0,0,0,9,73.71H96.19a5,5,0,0,0,5-4.95V58.89H83A13.38,13.38,0,0,1,69.6,45.53V43h0A13.37,13.37,0,0,1,83,29.61h18.2V15.91a5,5,0,0,0-5-4.95H9A8.91,8.91,0,0,1,4,9.46Z" />
  </g>
  <g id="Path_540" data-name="Path 540">
    <path class="cls-1" d="M108.9,31.6V56.89H83A11.37,11.37,0,0,1,71.6,45.52V43A11.36,11.36,0,0,1,83,31.6Z" />
  </g>
  <g id="Path_541" data-name="Path 541">
    <path class="cls-2"
      d="M108.9,58.89H83A13.38,13.38,0,0,1,69.6,45.52V43A13.38,13.38,0,0,1,83,29.6h26a2,2,0,0,1,2,2V56.89A2,2,0,0,1,108.9,58.89ZM83,33.6A9.38,9.38,0,0,0,73.6,43v2.56A9.39,9.39,0,0,0,83,54.89H106.9V33.6Z" />
  </g>
  <g id="Ellipse_65" data-name="Ellipse 65">
    <path class="cls-2"
      d="M83.83,50.32a6.3,6.3,0,0,1-.75,0A6.08,6.08,0,1,1,89.86,45,6.09,6.09,0,0,1,83.83,50.32Zm0-8.16a2.08,2.08,0,0,0-1.64,3.36,2,2,0,0,0,1.38.78,2.09,2.09,0,0,0,2.32-1.81A2.06,2.06,0,0,0,85.46,43a2.09,2.09,0,0,0-1.38-.78Z" />
  </g>
</svg>