<svg width="20" height="20" viewBox="0 0 20 20" fill="none" xmlns="http://www.w3.org/2000/svg">
    <g clip-path="url(#clip0_5136_6337)">
        <path
            d="M19.1031 0.896024C18.5411 0.334024 17.7941 0.0250244 17.0001 0.0250244C16.2061 0.0250244 15.4581 0.334024 14.8971 0.896024L5.14705 10.646C5.09505 10.698 5.05605 10.76 5.03105 10.829L3.03105 16.329C2.96505 16.512 3.01005 16.716 3.14705 16.853C3.24205 16.949 3.37005 17 3.50105 17C3.55805 17 3.61605 16.99 3.67205 16.97L9.17205 14.97C9.24105 14.945 9.30305 14.905 9.35505 14.854L19.105 5.10402C19.667 4.54202 19.976 3.79502 19.976 3.00002C19.976 2.20502 19.667 1.45802 19.105 0.896024H19.1031ZM8.72505 14.068L4.33605 15.664L5.93205 11.275L14.0001 3.20702L16.793 6.00002L8.72505 14.068V14.068ZM18.397 4.39602L17.5001 5.29202L14.7071 2.49902L15.6041 1.60302C15.9771 1.23002 16.4731 1.02502 17.0001 1.02502C17.5271 1.02502 18.023 1.23002 18.397 1.60302C18.77 1.97602 18.9751 2.47202 18.9751 2.99902C18.9751 3.52602 18.77 4.02202 18.397 4.39502V4.39602Z"
            fill="currentColor" />
        <path
            d="M17.5 20H1.5C0.673 20 0 19.327 0 18.5V2.5C0 1.673 0.673 1 1.5 1H11.5C11.776 1 12 1.224 12 1.5C12 1.776 11.776 2 11.5 2H1.5C1.224 2 1 2.224 1 2.5V18.5C1 18.776 1.224 19 1.5 19H17.5C17.776 19 18 18.776 18 18.5V8.5C18 8.224 18.224 8 18.5 8C18.776 8 19 8.224 19 8.5V18.5C19 19.327 18.327 20 17.5 20Z"
            fill="currentColor" />
    </g>
    <defs>
        <clipPath id="clip0_5136_6337">
            <rect width="20" height="20" fill="white" />
        </clipPath>
    </defs>
</svg>