<svg width="20" height="20" viewBox="0 0 20 20" fill="none" xmlns="http://www.w3.org/2000/svg">
    <g clip-path="url(#clip0_5136_6317)">
        <path
            d="M15.5 2H12V1.5C12 0.673 11.327 0 10.5 0H8.5C7.673 0 7 0.673 7 1.5V2H3.5C2.673 2 2 2.673 2 3.5V4.5C2 5.152 2.418 5.708 3 5.914V18.5C3 19.327 3.673 20 4.5 20H14.5C15.327 20 16 19.327 16 18.5V5.914C16.582 5.708 17 5.152 17 4.5V3.5C17 2.673 16.327 2 15.5 2ZM8 1.5C8 1.224 8.224 1 8.5 1H10.5C10.776 1 11 1.224 11 1.5V2H8V1.5ZM14.5 19H4.5C4.224 19 4 18.776 4 18.5V6H15V18.5C15 18.776 14.776 19 14.5 19ZM16 4.5C16 4.776 15.776 5 15.5 5H3.5C3.224 5 3 4.776 3 4.5V3.5C3 3.224 3.224 3 3.5 3H15.5C15.776 3 16 3.224 16 3.5V4.5Z"
            fill="currentColor" />
        <path
            d="M12.5 7C12.224 7 12 7.224 12 7.5V17.5C12 17.776 12.224 18 12.5 18C12.776 18 13 17.776 13 17.5V7.5C13 7.224 12.776 7 12.5 7Z"
            fill="currentColor" />
        <path
            d="M9.5 7C9.224 7 9 7.224 9 7.5V17.5C9 17.776 9.224 18 9.5 18C9.776 18 10 17.776 10 17.5V7.5C10 7.224 9.776 7 9.5 7Z"
            fill="currentColor" />
        <path
            d="M6.5 7C6.224 7 6 7.224 6 7.5V17.5C6 17.776 6.224 18 6.5 18C6.776 18 7 17.776 7 17.5V7.5C7 7.224 6.776 7 6.5 7Z"
            fill="currentColor" />
        <mask id="path-5-inside-1_5136_6317" fill="white">
            <path
                d="M214 139.81C214.003 72.1161 214.005 0.0781019 127.1 0.0781019C127.1 0.0781019 80.8445 -2.45577 69.55 21.3419C13.6722 -9.5957 0 89.111 0 140.925C-3.7834e-05 166 43.628 86.7816 54.5 83C73.9549 76.2331 121 133.5 167.5 98C207.507 126.286 211.403 174.901 214 139.81Z" />
        </mask>
        <path
            d="M214 139.81C214.003 72.1161 214.005 0.0781019 127.1 0.0781019C127.1 0.0781019 80.8445 -2.45577 69.55 21.3419C13.6722 -9.5957 0 89.111 0 140.925C-3.7834e-05 166 43.628 86.7816 54.5 83C73.9549 76.2331 121 133.5 167.5 98C207.507 126.286 211.403 174.901 214 139.81Z"
            fill="#C5CAD2" />
        <path
            d="M208 139.81L208 140.925L220 140.925L220 139.81L208 139.81ZM127.1 0.0781019L126.443 12.0601L126.771 12.0781H127.1V0.0781019ZM214 139.81L225.967 140.695L226 140.253L226 139.81L214 139.81ZM0 140.925L12 140.925V140.925H0ZM69.55 21.3419L63.7375 31.8402L74.9136 38.028L80.391 26.487L69.55 21.3419ZM54.5 83L58.4422 94.334L58.4422 94.334L54.5 83ZM167.5 98L174.428 88.2017C170.144 85.1727 164.389 85.2781 160.218 88.4619L167.5 98ZM127.1 12.0781C147.188 12.0781 161.072 16.2346 170.879 22.5028C180.606 28.7199 187.34 37.6643 192.039 49.1143C201.814 72.9364 202.001 105.198 202 139.809L226 139.81C226.001 106.728 226.191 69.1237 214.242 40.0034C208.078 24.9822 198.519 11.6862 183.804 2.28072C169.169 -7.07368 150.464 -11.9219 127.1 -11.9219V12.0781ZM12 140.925C12 115.582 15.3961 79.6553 25.0336 54.3764C29.9196 41.5605 35.6655 33.4923 41.4698 29.8643C46.0929 26.9746 52.6561 25.7048 63.7375 31.8402L75.3625 10.8436C58.5051 1.51016 42.405 0.977094 28.749 9.51288C16.2741 17.3104 8.12482 31.3565 2.60808 45.8268C-8.56003 75.1205 -12 114.454 -12 140.925H12ZM80.391 26.487C81.7638 23.5944 84.4541 20.9297 88.8829 18.6056C93.3427 16.2654 98.888 14.6422 104.691 13.5952C110.424 12.5608 115.934 12.1713 120.053 12.0487C122.095 11.9879 123.755 11.9939 124.877 12.0138C125.438 12.0238 125.862 12.0371 126.13 12.0471C126.264 12.0521 126.358 12.0563 126.412 12.0587C126.438 12.0599 126.454 12.0608 126.46 12.061C126.462 12.0612 126.462 12.0612 126.46 12.061C126.458 12.0609 126.456 12.0608 126.453 12.0607C126.452 12.0606 126.45 12.0605 126.449 12.0604C126.446 12.0603 126.443 12.0601 127.1 0.0781019C127.756 -11.9039 127.753 -11.9041 127.749 -11.9043C127.748 -11.9044 127.744 -11.9046 127.742 -11.9047C127.736 -11.905 127.73 -11.9053 127.723 -11.9057C127.709 -11.9065 127.692 -11.9073 127.672 -11.9083C127.633 -11.9103 127.583 -11.9128 127.522 -11.9156C127.399 -11.9213 127.233 -11.9284 127.025 -11.9362C126.61 -11.9517 126.029 -11.9695 125.303 -11.9824C123.852 -12.0081 121.809 -12.0142 119.339 -11.9407C114.432 -11.7947 107.672 -11.3303 100.429 -10.0234C93.2568 -8.72926 85.1207 -6.5238 77.731 -2.6461C70.3105 1.24784 62.9834 7.19046 58.709 16.1967L80.391 26.487ZM-12 140.925C-12 143.083 -11.8056 146.047 -10.6312 148.95C-9.29885 152.242 -6.14154 156.5 -0.30204 157.588C4.45912 158.475 8.27597 156.636 9.99512 155.666C12.0132 154.527 13.7674 153.065 15.1565 151.774C20.4693 146.836 26.9677 138.102 32.9321 129.767C39.3219 120.836 45.4653 111.823 51.0319 104.327C53.7744 100.633 56.103 97.6878 57.9522 95.6353C58.8797 94.6057 59.516 93.9927 59.883 93.6798C60.4372 93.2071 59.8849 93.8322 58.4422 94.334L50.5578 71.666C47.7561 72.6405 45.5889 74.3276 44.3096 75.4186C42.843 76.6693 41.4272 78.1215 40.1213 79.571C37.5036 82.4766 34.6402 86.1444 31.7636 90.018C26.0922 97.6553 19.2901 107.588 13.4139 115.801C7.11232 124.608 2.02413 131.214 -1.18307 134.195C-1.92394 134.884 -2.10812 134.938 -1.79938 134.764C-1.78962 134.758 0.5468 133.333 4.09377 133.994C8.71908 134.855 10.9285 138.247 11.6165 139.947C12.1465 141.257 12 141.902 12 140.925L-12 140.925ZM58.4422 94.334C57.6883 94.5962 57.8616 94.2074 59.9916 94.7657C62.0548 95.3064 64.8134 96.4265 68.5393 98.2544C72.2485 100.074 76.2173 102.238 80.917 104.732C85.491 107.16 90.5564 109.79 95.9197 112.212C117.339 121.883 146.224 129.341 174.782 107.538L160.218 88.4619C142.276 102.159 124.388 98.7331 105.796 90.3382C101.157 88.2432 96.6421 85.9075 92.1684 83.5331C87.8203 81.2254 83.2739 78.7506 79.1102 76.7078C74.9632 74.6733 70.4913 72.7069 66.0763 71.5498C61.7281 70.4102 56.1754 69.7121 50.5578 71.666L58.4422 94.334ZM160.572 107.798C178.185 120.251 188.065 137.332 194.297 148.513C195.751 151.123 197.289 153.927 198.626 155.989C199.283 157.003 200.251 158.409 201.482 159.686C202.254 160.488 205.45 163.794 210.691 164.045C217.554 164.374 221.283 159.597 222.529 157.468C223.771 155.347 224.328 153.143 224.618 151.821C225.255 148.922 225.643 145.072 225.967 140.695L202.033 138.924C201.707 143.32 201.406 145.627 201.176 146.676C201.033 147.328 201.113 146.546 201.817 145.344C202.525 144.135 205.653 139.777 211.839 140.073C214.31 140.191 216.103 141.084 217.042 141.665C217.984 142.249 218.558 142.82 218.763 143.033C219.143 143.427 219.164 143.55 218.764 142.932C217.984 141.729 216.956 139.872 215.261 136.83C208.894 125.405 196.822 104.035 174.428 88.2017L160.572 107.798Z"
            fill="#223654" mask="url(#path-5-inside-1_5136_6317)" />
    </g>
    <defs>
        <clipPath id="clip0_5136_6317">
            <rect width="20" height="20" fill="white" />
        </clipPath>
    </defs>
</svg>